<svg xmlns="http://www.w3.org/2000/svg" xmlns:xlink="http://www.w3.org/1999/xlink" x="0" y="0" width="992.4354858398438" height="329.2817077636719" style="
        width:992.4354858398438px;
        height:329.2817077636719px;
        background: transparent;
        fill: none;
">
        
        
        <svg xmlns="http://www.w3.org/2000/svg" class="role-diagram-draw-area"><g class="shapes-region" style="stroke: black; fill: none;"><g class="composite-shape"><path class="real" d=" M662.44,77.73 L683.01,83.9 L658.3,96.58 L637.73,90.41 Z" style="stroke-width: 1; stroke: rgb(0, 0, 0); fill: rgb(248, 231, 28); fill-opacity: 1;"/></g><g class="composite-shape axis2d" style="stroke-width: 1; stroke: rgb(0, 0, 0);"><path class="real" d=" M340.08,128 L440.08,128 M350.08,48.8 L350.08,136.8"/><path d=" M433.08,123 L440.08,128 L433.08,133"/><path d=" M345.08,55.8 L350.08,48.8 L355.08,55.8"/></g><g class="composite-shape"><path class="real" d=" M350.08,48.8 L450.08,48.8 L450.08,128.8 L350.08,128.8 Z" style="stroke-width: 1; stroke: none; fill: none; fill-opacity: 1;"/><path class="real" d=" M370.08,48.8 L370.08,128.8 M390.08,48.8 L390.08,128.8 M410.08,48.8 L410.08,128.8 M430.08,48.8 L430.08,128.8" style="stroke-width: 1; stroke: rgb(0, 0, 0); fill: none; fill-opacity: 1;"/><path class="real" d=" M350.08,68.8 L450.08,68.8 M350.08,88.8 L450.08,88.8 M350.08,108.8 L450.08,108.8" style="stroke-width: 1; stroke: rgb(0, 0, 0); fill: none; fill-opacity: 1;"/><path class="real" d=" M350.08,48.8 L450.08,48.8 L450.08,128.8 L350.08,128.8 Z" style="stroke-width: 1; stroke: rgb(0, 0, 0); fill: none; fill-opacity: 1;"/></g><g class="arrow-line"><path class="connection real" stroke-dasharray="" d="  M390.08,88.8 L407.08,88.8" style="stroke: rgb(126, 211, 33); stroke-opacity: 1; stroke-width: 1; fill: none; fill-opacity: 1;"/><g stroke="none" fill="rgb(126,211,33)" fill-opacity="1" transform="matrix(-1,1.2246467991473532e-16,-1.2246467991473532e-16,-1,410.0824537803213,88.80000000000001)" style="stroke: none; fill: rgb(126, 211, 33); stroke-width: 1;"><path d=" M8.93,-4.29 L0,0 L8.93,4.29 Z"/></g></g><g class="arrow-line"><path class="connection real" stroke-dasharray="" d="  M389.58,88.4 L390.01,71.8" style="stroke: rgb(208, 2, 27); stroke-opacity: 1; stroke-width: 1; fill: none; fill-opacity: 1;"/><g stroke="none" fill="rgb(208,2,27)" fill-opacity="1" transform="matrix(-0.02547904951689947,0.9996753563210986,-0.9996753563210986,-0.02547904951689947,390.0824537803213,68.80000000000001)" style="stroke: none; fill: rgb(208, 2, 27); stroke-width: 1;"><path d=" M8.93,-4.29 L0,0 L8.93,4.29 Z"/></g></g><g class="arrow-line"><path class="connection real" stroke-dasharray="" d="  M467.08,92.3 L511.08,92.3 M467.08,95.3 L511.08,95.3" style="stroke: rgb(0, 0, 0); stroke-width: 1; fill: none; fill-opacity: 1;"/><g stroke="#000" transform="matrix(-1,1.2246467991473532e-16,-1.2246467991473532e-16,-1,519.0824537803213,93.80000000000001)" style="stroke: rgb(0, 0, 0); stroke-width: 1;"><path d=" M10.93,-3.29 Q4.96,-0.45 0,0 Q4.96,0.45 10.93,3.29"/></g></g><g class="composite-shape"><path class="real" d=" M630.8,44.81 L763.18,90.37 L690.96,128.97 L558.58,83.41 Z" style="stroke-width: 1; stroke: none; fill: none; fill-opacity: 1;"/><path class="real" d=" M649.71,51.32 L577.5,89.92 M668.62,57.83 L596.41,96.43 M687.53,64.34 L615.32,102.94 M706.45,70.84 L634.23,109.45 M725.36,77.35 L653.14,115.95 M744.27,83.86 L672.05,122.46" style="stroke-width: 1; stroke: rgb(0, 0, 0); fill: none; fill-opacity: 1;"/><path class="real" d=" M606.73,57.68 L739.11,103.24 M582.66,70.55 L715.04,116.1" style="stroke-width: 1; stroke: rgb(0, 0, 0); fill: none; fill-opacity: 1;"/><path class="real" d=" M630.8,44.81 L763.18,90.37 L690.96,128.97 L558.58,83.41 Z" style="stroke-width: 1; stroke: rgb(0, 0, 0); fill: none; fill-opacity: 1;"/></g><g class="arrow-line"><path class="connection real" stroke-dasharray="" d="  M651.42,94.11 L655.48,95.57" style="stroke: rgb(126, 211, 33); stroke-opacity: 1; stroke-width: 1; fill: none; fill-opacity: 1;"/><g stroke="none" fill="rgb(126,211,33)" fill-opacity="1" transform="matrix(-0.9413528190137155,-0.33742387309574134,0.33742387309574134,-0.9413528190137155,658.3018704618758,96.57822098732498)" style="stroke: none; fill: rgb(126, 211, 33); stroke-width: 1;"><path d=" M8.93,-4.29 L0,0 L8.93,4.29 Z"/></g></g><g class="arrow-line"><path class="connection real" stroke-dasharray="" d="  M639.39,90.07 L660.82,78.62" style="stroke: rgb(208, 2, 27); stroke-opacity: 1; stroke-width: 1; fill: none; fill-opacity: 1;"/><g stroke="none" fill="rgb(208,2,27)" fill-opacity="1" transform="matrix(-0.8818801238645957,0.47147369717998616,-0.47147369717998616,-0.8818801238645957,663.4620915975905,77.20287743108469)" style="stroke: none; fill: rgb(208, 2, 27); stroke-width: 1;"><path d=" M8.93,-4.29 L0,0 L8.93,4.29 Z"/></g></g><g class="arrow-line"><path class="connection real" stroke-dasharray="" d="  M674.08,80.8 C713.28,51.4 712.15,76.74 749.73,49.53" style="stroke: rgb(0, 0, 0); stroke-opacity: 1; stroke-width: 1; fill: none; fill-opacity: 1;"/><g stroke="none" fill="rgb(0,0,0)" fill-opacity="1" transform="matrix(-0.7999989281485084,0.6000014291326627,-0.6000014291326627,-0.7999989281485084,752.0824537803213,47.80000000000001)" style="stroke: none; fill: rgb(0, 0, 0); stroke-width: 1;"><path d=" M8.93,-4.29 L0,0 L8.93,4.29 Z"/></g></g><g class="composite-shape axis2d" style="stroke-width: 1; stroke: rgb(0, 0, 0);"><path class="real" d=" M341.08,282 L441.08,282 M351.08,202.8 L351.08,290.8"/><path d=" M434.08,277 L441.08,282 L434.08,287"/><path d=" M346.08,209.8 L351.08,202.8 L356.08,209.8"/></g><g class="composite-shape"><path class="real" d=" M351.08,202.8 L451.08,202.8 L451.08,282.8 L351.08,282.8 Z" style="stroke-width: 1; stroke: none; fill: none; fill-opacity: 1;"/><path class="real" d=" M371.08,202.8 L371.08,282.8 M391.08,202.8 L391.08,282.8 M411.08,202.8 L411.08,282.8 M431.08,202.8 L431.08,282.8" style="stroke-width: 1; stroke: rgb(0, 0, 0); fill: none; fill-opacity: 1;"/><path class="real" d=" M351.08,222.8 L451.08,222.8 M351.08,242.8 L451.08,242.8 M351.08,262.8 L451.08,262.8" style="stroke-width: 1; stroke: rgb(0, 0, 0); fill: none; fill-opacity: 1;"/><path class="real" d=" M351.08,202.8 L451.08,202.8 L451.08,282.8 L351.08,282.8 Z" style="stroke-width: 1; stroke: rgb(0, 0, 0); fill: none; fill-opacity: 1;"/></g><g class="arrow-line"><path class="connection real" stroke-dasharray="" d="  M391.08,242.8 L408.08,242.8" style="stroke: rgb(126, 211, 33); stroke-opacity: 1; stroke-width: 1; fill: none; fill-opacity: 1;"/><g stroke="none" fill="rgb(126,211,33)" fill-opacity="1" transform="matrix(-1,1.2246467991473532e-16,-1.2246467991473532e-16,-1,411.08245378032126,242.8)" style="stroke: none; fill: rgb(126, 211, 33); stroke-width: 1;"><path d=" M8.93,-4.29 L0,0 L8.93,4.29 Z"/></g></g><g class="arrow-line"><path class="connection real" stroke-dasharray="" d="  M390.58,242.4 L391.01,225.8" style="stroke: rgb(208, 2, 27); stroke-opacity: 1; stroke-width: 1; fill: none; fill-opacity: 1;"/><g stroke="none" fill="rgb(208,2,27)" fill-opacity="1" transform="matrix(-0.02547904951689947,0.9996753563210986,-0.9996753563210986,-0.02547904951689947,391.0824537803214,222.8)" style="stroke: none; fill: rgb(208, 2, 27); stroke-width: 1;"><path d=" M8.93,-4.29 L0,0 L8.93,4.29 Z"/></g></g><g class="arrow-line"><path class="connection real" stroke-dasharray="" d="  M467.08,248.3 L524.08,248.3 M467.08,251.3 L524.08,251.3" style="stroke: rgb(0, 0, 0); stroke-width: 1; fill: none; fill-opacity: 1;"/><g stroke="#000" transform="matrix(-1,1.2246467991473532e-16,-1.2246467991473532e-16,-1,532.0824537803213,249.8)" style="stroke: rgb(0, 0, 0); stroke-width: 1;"><path d=" M10.93,-3.29 Q4.96,-0.45 0,0 Q4.96,0.45 10.93,3.29"/></g></g><g class="composite-shape"><path class="real" d=" M915.17,230.29 L823.29,236.72 L571.1,249.8 L662.99,243.37 Z" style="stroke-width: 1; stroke: rgb(0, 0, 0); fill: rgb(248, 231, 28); fill-opacity: 1;"/></g><g class="arrow-line"><path class="connection real" stroke-dasharray="" d="  M608.68,247 L574.08,249.27" style="stroke: rgb(126, 211, 33); stroke-opacity: 1; stroke-width: 1; fill: none; fill-opacity: 1;"/><g stroke="none" fill="rgb(126,211,33)" fill-opacity="1" transform="matrix(0.9978589232386035,-0.06540312923014367,0.06540312923014367,0.9978589232386035,571.0824537803213,249.46969574655034)" style="stroke: none; fill: rgb(126, 211, 33); stroke-width: 1;"><path d=" M8.93,-4.29 L0,0 L8.93,4.29 Z"/></g></g><g class="arrow-line"><path class="connection real" stroke-dasharray="" d="  M669.56,242.96 L922.72,230.24" style="stroke: rgb(208, 2, 27); stroke-opacity: 1; stroke-width: 1; fill: none; fill-opacity: 1;"/><g stroke="none" fill="rgb(208,2,27)" fill-opacity="1" transform="matrix(-0.9987369566060175,0.05024431817977035,-0.05024431817977035,-0.9987369566060175,925.7144547112822,230.09435219031005)" style="stroke: none; fill: rgb(208, 2, 27); stroke-width: 1;"><path d=" M8.93,-4.29 L0,0 L8.93,4.29 Z"/></g></g><g class="arrow-line"><path class="connection real" stroke-dasharray="" d="  M390.08,88.8 L407.96,106.68" style="stroke: rgb(80, 227, 194); stroke-opacity: 1; stroke-width: 1; fill: none; fill-opacity: 1;"/><g stroke="none" fill="rgb(80,227,194)" fill-opacity="1" transform="matrix(-0.7071067811865477,-0.7071067811865475,0.7071067811865475,-0.7071067811865477,410.0824537803213,108.80000000000001)" style="stroke: none; fill: rgb(80, 227, 194); stroke-width: 1;"><path d=" M8.93,-4.29 L0,0 L8.93,4.29 Z"/></g></g><g class="arrow-line"><path class="connection real" stroke-dasharray="" d="  M391.08,242.8 L408.96,260.68" style="stroke: rgb(80, 227, 194); stroke-opacity: 1; stroke-width: 1; fill: none; fill-opacity: 1;"/><g stroke="none" fill="rgb(80,227,194)" fill-opacity="1" transform="matrix(-0.7071067811865477,-0.7071067811865475,0.7071067811865475,-0.7071067811865477,411.0824537803213,262.8)" style="stroke: none; fill: rgb(80, 227, 194); stroke-width: 1;"><path d=" M8.93,-4.29 L0,0 L8.93,4.29 Z"/></g></g><g class="arrow-line"><path class="connection real" stroke-dasharray="" d="  M728.74,242.69" style="stroke: rgb(80, 227, 194); stroke-opacity: 1; stroke-width: 1; fill: none; fill-opacity: 1;"/><g stroke="none" fill="rgb(80,227,194)" fill-opacity="1" transform="matrix(-1,1.2246467991473532e-16,-1.2246467991473532e-16,-1,728.7427306134616,242.69147475922546)" style="stroke: none; fill: rgb(80, 227, 194); stroke-width: 1;"><path d=" M8.93,-4.29 L0,0 L8.93,4.29 Z"/></g></g><g class="arrow-line"><path class="connection real" stroke-dasharray="" d="  M751.74,237.69 C790.94,208.29 789.81,233.63 827.39,206.42" style="stroke: rgb(0, 0, 0); stroke-opacity: 1; stroke-width: 1; fill: none; fill-opacity: 1;"/><g stroke="none" fill="rgb(0,0,0)" fill-opacity="1" transform="matrix(-0.7999989281485084,0.6000014291326627,-0.6000014291326627,-0.7999989281485084,829.7427306134617,204.69147475922543)" style="stroke: none; fill: rgb(0, 0, 0); stroke-width: 1;"><path d=" M8.93,-4.29 L0,0 L8.93,4.29 Z"/></g></g><g class="arrow-line"><path class="connection real" stroke-dasharray="" d="  M264.08,171.8 C270.62,166.9 275.11,161.5 278.33,155.88 C294.67,127.39 278.35,93.28 329.98,90.17" style="stroke: rgb(0, 0, 0); stroke-width: 1; fill: none; fill-opacity: 1;"/><g stroke="#000" transform="matrix(-0.9989062573590616,0.04675776950317709,-0.04675776950317709,-0.9989062573590616,331.56228166118075,90.08536987304689)" style="stroke: rgb(0, 0, 0); stroke-width: 1;"><path d=" M10.93,-3.29 Q4.96,-0.45 0,0 Q4.96,0.45 10.93,3.29"/></g></g><g class="arrow-line"><path class="connection real" stroke-dasharray="" d="  M264.08,171.8 C302.37,185.02 259.99,255.38 326.55,255.09" style="stroke: rgb(0, 0, 0); stroke-width: 1; fill: none; fill-opacity: 1;"/><g stroke="#000" transform="matrix(-0.9998925328992174,0.014660240529660121,-0.014660240529660121,-0.9998925328992174,327.56228166118075,255.08536987304686)" style="stroke: rgb(0, 0, 0); stroke-width: 1;"><path d=" M10.93,-3.29 Q4.96,-0.45 0,0 Q4.96,0.45 10.93,3.29"/></g></g><g class="arrow-line"><path class="connection real" stroke-dasharray="" d="  M637.73,90.41 L648.39,101.06 L655.61,108.28" style="stroke: rgb(80, 227, 194); stroke-opacity: 1; stroke-width: 1; fill: none; fill-opacity: 1;"/><g stroke="none" fill="rgb(80,227,194)" fill-opacity="1" transform="matrix(-0.7071067811865477,-0.7071067811865475,0.7071067811865475,-0.7071067811865477,657.7279079646833,110.4057364295088)" style="stroke: none; fill: rgb(80, 227, 194); stroke-width: 1;"><path d=" M8.93,-4.29 L0,0 L8.93,4.29 Z"/></g></g><g/></g><g/><g/><g/></svg>
        <svg xmlns="http://www.w3.org/2000/svg" xmlns:xlink="http://www.w3.org/1999/xlink" width="990.9989013671875" height="327.8451232910156" style="width:990.9989013671875px;height:327.8451232910156px;font-family:Asana-Math, Asana;background:transparent;"><g><g><g><g><g><g><g transform="matrix(1,0,0,1,162.8619384765625,167.5162811279297)"><path transform="matrix(0.017,0,0,-0.017,0,0)" d="M418 -3L418 27L366 30C311 33 301 44 301 96L301 700L60 598L67 548L217 614L217 96C217 44 206 33 152 30L96 27L96 -3C250 0 250 0 261 0C292 0 402 -3 418 -3Z" stroke="rgb(0,0,0)" stroke-opacity="1" stroke-width="8" fill="rgb(0,0,0)" fill-opacity="1"></path></g></g><g><g transform="matrix(1,0,0,1,174.73626708984375,167.5162811279297)"><path transform="matrix(0.017,0,0,-0.017,0,0)" d="M555 243L555 299L51 299L51 243Z" stroke="rgb(0,0,0)" stroke-opacity="1" stroke-width="8" fill="rgb(0,0,0)" fill-opacity="1"></path></g></g><g><g transform="matrix(1,0,0,1,188.40631103515625,167.5162811279297)"><path transform="matrix(0.017,0,0,-0.017,0,0)" d="M209 656L209 648C211 643 213 639 218 637C235 642 266 653 282 653C334 653 343 500 347 460C219 320 120 161 25 -2L35 -16C60 -5 85 4 111 13C154 159 261 308 353 428C361 365 384 13 401 -6C456 -42 528 44 570 74L570 87L558 87L558 88C541 77 512 55 491 55C452 55 444 188 439 219C424 326 399 672 383 689C347 728 251 667 209 656Z" stroke="rgb(144,19,254)" stroke-opacity="1" stroke-width="8" fill="rgb(144,19,254)" fill-opacity="1"></path></g></g></g></g><g><g><g><g transform="matrix(1,0,0,1,223.60272216796875,167.5162811279297)"><path transform="matrix(0.017,0,0,-0.017,0,0)" d="M280 181L280 106C280 46 269 32 220 30L158 27L158 -3C291 0 291 0 315 0C339 0 339 0 472 -3L472 27L424 30C375 33 364 46 364 106L364 181C423 181 444 180 472 177L472 248L364 245L365 697L285 667L2 204L2 181ZM280 245L65 245L280 597Z" stroke="rgb(0,0,0)" stroke-opacity="1" stroke-width="8" fill="rgb(0,0,0)" fill-opacity="1"></path></g></g></g></g><g><g><g><g transform="matrix(1,0,0,1,176.64422607421875,188.6386260986328)"><path transform="matrix(0.017,0,0,-0.017,0,0)" d="M459 253C459 366 378 446 264 446C216 446 180 443 127 396L127 605L432 604L432 689L75 690L75 322L95 316C142 363 169 377 218 377C314 377 374 309 374 201C374 90 310 25 201 25C147 25 97 43 83 69L37 151L13 137C36 80 48 48 62 4C90 -11 130 -20 173 -20C301 -20 459 89 459 253Z" stroke="rgb(0,0,0)" stroke-opacity="1" stroke-width="8" fill="rgb(0,0,0)" fill-opacity="1"></path></g></g></g></g><g><g><g><g transform="matrix(1,0,0,1,209.8204345703125,188.6386260986328)"><path transform="matrix(0.017,0,0,-0.017,0,0)" d="M459 253C459 366 378 446 264 446C216 446 180 443 127 396L127 605L432 604L432 689L75 690L75 322L95 316C142 363 169 377 218 377C314 377 374 309 374 201C374 90 310 25 201 25C147 25 97 43 83 69L37 151L13 137C36 80 48 48 62 4C90 -11 130 -20 173 -20C301 -20 459 89 459 253Z" stroke="rgb(0,0,0)" stroke-opacity="1" stroke-width="8" fill="rgb(0,0,0)" fill-opacity="1"></path></g></g><g><g transform="matrix(1,0,0,1,221.6947021484375,188.6386260986328)"><path transform="matrix(0.017,0,0,-0.017,0,0)" d="M555 243L555 299L51 299L51 243Z" stroke="rgb(0,0,0)" stroke-opacity="1" stroke-width="8" fill="rgb(0,0,0)" fill-opacity="1"></path></g></g><g><g transform="matrix(1,0,0,1,235.36474609375,188.6386260986328)"><path transform="matrix(0.017,0,0,-0.017,0,0)" d="M209 656L209 648C211 643 213 639 218 637C235 642 266 653 282 653C334 653 343 500 347 460C219 320 120 161 25 -2L35 -16C60 -5 85 4 111 13C154 159 261 308 353 428C361 365 384 13 401 -6C456 -42 528 44 570 74L570 87L558 87L558 88C541 77 512 55 491 55C452 55 444 188 439 219C424 326 399 672 383 689C347 728 251 667 209 656Z" stroke="rgb(144,19,254)" stroke-opacity="1" stroke-width="8" fill="rgb(144,19,254)" fill-opacity="1"></path></g></g></g></g><svg x="152.79461669921875" overflow="visible" y="150.5162811279297" height="42.96296310424805" width="7.643097877502441"><path d=" M 5.98 1.70 l -0.10 -0.10 q -1.09 0.03 -2.16 0.03 q -1.02 0.00 -2.14 -0.03 l -0.15 0.22 q 0.15 0.58 0.15 3.15 v 0.85 h 1.43 v -0.85 q 0.00 -1.31 0.07 -2.14 q 0.05 -0.60 1.19 -0.60 h 1.65 l 0.07 -0.09 v -0.44 z  M 1.58 5.63 v 31.71 h 1.43 v -31.71 z " style="fill:rgb(0,0,0);fill-opacity:1;stroke-width:1px;stroke:none;stroke-opacity:1;"></path><path d=" M 5.98 41.26 l -0.10 0.10 q -1.09 -0.03 -2.16 -0.03 q -1.02 0.00 -2.14 0.03 l -0.15 -0.22 q 0.15 -0.58 0.15 -3.15 v -0.85 h 1.43 v 0.85 q 0.00 1.31 0.07 2.14 q 0.05 0.60 1.19 0.60 h 1.65 l 0.07 0.09 v 0.44 z" style="fill:rgb(0,0,0);fill-opacity:1;stroke-width:1px;stroke:none;stroke-opacity:1;"></path></svg><svg x="248.2940673828125" overflow="visible" y="150.5162811279297" height="42.96296310424805" width="7.643097877502441"><path d=" M 1.57 1.70 l 0.10 -0.10 q 1.09 0.03 2.16 0.03 q 1.02 0.00 2.14 -0.03 l 0.15 0.22 q -0.15 0.58 -0.15 3.15 v 0.85 h -1.43 v -0.85 q 0.00 -1.31 -0.07 -2.14 q -0.05 -0.60 -1.19 -0.60 h -1.65 l -0.07 -0.09 v -0.44 z  M 5.97 5.63 v 31.71 h -1.43 v -31.71 z" style="fill:rgb(0,0,0);fill-opacity:1;stroke-width:1px;stroke:none;stroke-opacity:1;"></path><path d=" M 1.57 41.26 l 0.10 0.10 q 1.09 -0.03 2.16 -0.03 q 1.02 0.00 2.14 0.03 l 0.15 -0.22 q -0.15 -0.58 -0.15 -3.15 v -0.85 h -1.43 v 0.85 q 0.00 1.31 -0.07 2.14 q -0.05 0.60 -1.19 0.60 h -1.65 l -0.07 0.09 v 0.44 z" style="fill:rgb(0,0,0);fill-opacity:1;stroke-width:1px;stroke:none;stroke-opacity:1;"></path></svg><line stroke-dasharray="1" style="fill:none;stroke-width:[object Object];stroke:rgba(0, 0, 0, 0);" x1="157.40740966796875" y1="150.8754119873047" x2="204.36588668823242" y2="150.8754119873047"></line><line stroke-dasharray="1" style="fill:none;stroke-width:[object Object];stroke:rgba(0, 0, 0, 0);" x1="157.40740966796875" y1="150.8754119873047" x2="157.40740966796875" y2="171.99774742126465"></line><line stroke-dasharray="1" style="fill:none;stroke-width:[object Object];stroke:rgba(0, 0, 0, 0);" x1="204.36588668823242" y1="150.8754119873047" x2="204.36588668823242" y2="171.99774742126465"></line><line stroke-dasharray="1" style="fill:none;stroke-width:[object Object];stroke:rgba(0, 0, 0, 0);" x1="157.40740966796875" y1="171.99774742126465" x2="204.36588668823242" y2="171.99774742126465"></line><line stroke-dasharray="1" style="fill:none;stroke-width:[object Object];stroke:rgba(0, 0, 0, 0);" x1="204.36590576171875" y1="150.8754119873047" x2="251.32438278198242" y2="150.8754119873047"></line><line stroke-dasharray="1" style="fill:none;stroke-width:[object Object];stroke:rgba(0, 0, 0, 0);" x1="204.36590576171875" y1="150.8754119873047" x2="204.36590576171875" y2="171.99774742126465"></line><line stroke-dasharray="1" style="fill:none;stroke-width:[object Object];stroke:rgba(0, 0, 0, 0);" x1="251.32438278198242" y1="150.8754119873047" x2="251.32438278198242" y2="171.99774742126465"></line><line stroke-dasharray="1" style="fill:none;stroke-width:[object Object];stroke:rgba(0, 0, 0, 0);" x1="204.36590576171875" y1="171.99774742126465" x2="251.32438278198242" y2="171.99774742126465"></line><line stroke-dasharray="1" style="fill:none;stroke-width:[object Object];stroke:rgba(0, 0, 0, 0);" x1="157.40740966796875" y1="171.9977569580078" x2="204.36588668823242" y2="171.9977569580078"></line><line stroke-dasharray="1" style="fill:none;stroke-width:[object Object];stroke:rgba(0, 0, 0, 0);" x1="157.40740966796875" y1="171.9977569580078" x2="157.40740966796875" y2="193.12009239196777"></line><line stroke-dasharray="1" style="fill:none;stroke-width:[object Object];stroke:rgba(0, 0, 0, 0);" x1="204.36588668823242" y1="171.9977569580078" x2="204.36588668823242" y2="193.12009239196777"></line><line stroke-dasharray="1" style="fill:none;stroke-width:[object Object];stroke:rgba(0, 0, 0, 0);" x1="157.40740966796875" y1="193.12009239196777" x2="204.36588668823242" y2="193.12009239196777"></line><line stroke-dasharray="1" style="fill:none;stroke-width:[object Object];stroke:rgba(0, 0, 0, 0);" x1="204.36590576171875" y1="171.9977569580078" x2="251.32438278198242" y2="171.9977569580078"></line><line stroke-dasharray="1" style="fill:none;stroke-width:[object Object];stroke:rgba(0, 0, 0, 0);" x1="204.36590576171875" y1="171.9977569580078" x2="204.36590576171875" y2="193.12009239196777"></line><line stroke-dasharray="1" style="fill:none;stroke-width:[object Object];stroke:rgba(0, 0, 0, 0);" x1="251.32438278198242" y1="171.9977569580078" x2="251.32438278198242" y2="193.12009239196777"></line><line stroke-dasharray="1" style="fill:none;stroke-width:[object Object];stroke:rgba(0, 0, 0, 0);" x1="204.36590576171875" y1="193.12009239196777" x2="251.32438278198242" y2="193.12009239196777"></line></g></g></g><g><g><g><g transform="matrix(1,0,0,1,62.716033935546875,176.7082061767578)"><path transform="matrix(0.017,0,0,-0.017,0,0)" d="M146 266C146 526 243 632 301 700L282 726C225 675 60 542 60 266C60 159 85 58 133 -32C168 -99 200 -138 282 -215L301 -194C255 -137 146 -15 146 266Z" stroke="rgb(0,0,0)" stroke-opacity="1" stroke-width="8" fill="rgb(0,0,0)" fill-opacity="1"></path></g></g><g><g transform="matrix(1,0,0,1,68.36138916015625,175.9899139404297)"><path transform="matrix(0.017,0,0,-0.017,0,0)" d="M567 55C567 39 552 30 524 28L480 25L480 -3C582 0 582 0 602 0C622 0 622 0 724 -3L724 25L698 28C651 35 650 35 642 80L555 705L509 705L136 112C100 56 82 40 48 32L28 27L28 -3C120 0 120 0 140 0C159 0 161 0 247 -3L247 25L195 28C179 29 164 38 164 47C164 55 171 69 190 102L292 277L538 277L563 89L563 86C563 84 567 69 567 55ZM496 601L533 313L317 313Z" stroke="rgb(0,0,0)" stroke-opacity="1" stroke-width="8" fill="rgb(0,0,0)" fill-opacity="1"></path></g></g><g><g transform="matrix(1,0,0,1,84.52301025390625,175.9899139404297)"><path transform="matrix(0.017,0,0,-0.017,0,0)" d="M555 243L555 299L51 299L51 243Z" stroke="rgb(0,0,0)" stroke-opacity="1" stroke-width="8" fill="rgb(0,0,0)" fill-opacity="1"></path></g></g><g><g transform="matrix(1,0,0,1,98.19305419921875,175.9899139404297)"><path transform="matrix(0.017,0,0,-0.017,0,0)" d="M103 664L150 662C174 661 185 653 185 636C185 629 179 576 176 559L104 125C89 36 86 31 46 28L10 25L7 -3L39 -3L133 0L227 -3L259 -3L262 25L210 28C184 30 174 37 174 57C174 63 175 74 176 78L265 613C272 652 277 657 316 661L351 664L354 692L248 689C231 689 213 689 170 690L106 692ZM541 656L541 648C543 643 545 639 550 637C567 642 598 653 614 653C666 653 675 500 679 460C551 320 452 161 357 -2L367 -16C392 -5 417 4 443 13C486 159 593 308 685 428C693 365 716 13 733 -6C788 -42 860 44 902 74L902 87L890 87L890 88C873 77 844 55 823 55C784 55 776 188 771 219C756 326 731 672 715 689C679 728 583 667 541 656Z" stroke="rgb(0,0,0)" stroke-opacity="1" stroke-width="8" fill="rgb(0,0,0)" fill-opacity="1"></path></g></g><g><g transform="matrix(1,0,0,1,114.34344482421875,176.7082061767578)"><path transform="matrix(0.017,0,0,-0.017,0,0)" d="M51 726L32 700C87 636 187 526 187 266C187 -10 83 -131 32 -194L51 -215C104 -165 273 -23 273 265C273 542 108 675 51 726Z" stroke="rgb(0,0,0)" stroke-opacity="1" stroke-width="8" fill="rgb(0,0,0)" fill-opacity="1"></path></g></g><g><g transform="matrix(1,0,0,1,119.98876953125,175.9899139404297)"><path transform="matrix(0.017,0,0,-0.017,0,0)" d="" stroke="rgb(0,0,0)" stroke-opacity="1" stroke-width="8" fill="rgb(0,0,0)" fill-opacity="1"></path></g></g><g><g transform="matrix(1,0,0,1,129.31536865234375,175.9899139404297)"><path transform="matrix(0.017,0,0,-0.017,0,0)" d="M604 347L604 406L65 406L65 347ZM604 134L604 193L65 193L65 134Z" stroke="rgb(0,0,0)" stroke-opacity="1" stroke-width="8" fill="rgb(0,0,0)" fill-opacity="1"></path></g></g></g></g><g><g><g><g><g transform="matrix(1,0,0,1,731.7957153320312,41.79237365722656)"><path transform="matrix(0.017,0,0,-0.017,0,0)" d="M579 -3L579 27L533 30C499 32 496 39 496 102L496 718L487 726C443 709 410 701 331 689L331 661L387 661C405 661 412 650 412 620L412 437C384 472 346 486 306 486C183 486 34 351 34 229C34 149 62 70 111 30C145 1 192 -12 257 -12C277 -12 300 -8 305 -4L416 89L411 -3C460 -1 476 0 488 0C506 0 570 -3 579 -3ZM412 350L412 221C412 156 410 146 397 123C369 76 320 45 273 45C185 45 122 130 122 249C122 358 176 422 266 422C345 422 412 366 412 350ZM860 -20C925 -20 1015 18 1027 36L1047 70L1034 80C970 42 947 33 904 33C839 33 785 62 757 111C738 144 731 172 729 230C750 227 780 226 814 226C900 226 1009 234 1056 244C1057 258 1058 267 1058 279C1058 394 984 469 872 469C835 469 790 464 750 440C668 392 636 323 636 219C636 25 771 -20 860 -20ZM969 267C945 264 894 261 843 261C800 261 757 264 731 270C731 317 735 339 748 365C769 409 812 436 860 436C893 436 919 423 937 396C959 363 966 334 969 267ZM1186 382L1186 94C1186 20 1219 -12 1296 -12C1319 -12 1343 -7 1349 0L1397 53L1384 70C1359 56 1344 51 1325 51C1286 51 1270 71 1270 120L1270 382L1398 382L1407 436L1270 430L1270 468C1270 510 1273 546 1281 610L1269 621C1245 606 1215 593 1184 583C1187 553 1188 534 1188 504L1188 434L1110 399L1110 378Z" stroke="rgb(0,0,0)" stroke-opacity="1" stroke-width="8" fill="rgb(0,0,0)" fill-opacity="1"></path></g></g></g><g><g transform="matrix(1,0,0,1,755.8137817382812,42.51066589355469)"><path transform="matrix(0.017,0,0,-0.017,0,0)" d="M146 266C146 526 243 632 301 700L282 726C225 675 60 542 60 266C60 159 85 58 133 -32C168 -99 200 -138 282 -215L301 -194C255 -137 146 -15 146 266Z" stroke="rgb(0,0,0)" stroke-opacity="1" stroke-width="8" fill="rgb(0,0,0)" fill-opacity="1"></path></g></g><g><g transform="matrix(1,0,0,1,761.4590454101562,41.79237365722656)"><path transform="matrix(0.017,0,0,-0.017,0,0)" d="M567 55C567 39 552 30 524 28L480 25L480 -3C582 0 582 0 602 0C622 0 622 0 724 -3L724 25L698 28C651 35 650 35 642 80L555 705L509 705L136 112C100 56 82 40 48 32L28 27L28 -3C120 0 120 0 140 0C159 0 161 0 247 -3L247 25L195 28C179 29 164 38 164 47C164 55 171 69 190 102L292 277L538 277L563 89L563 86C563 84 567 69 567 55ZM496 601L533 313L317 313Z" stroke="rgb(0,0,0)" stroke-opacity="1" stroke-width="8" fill="rgb(0,0,0)" fill-opacity="1"></path></g></g><g><g transform="matrix(1,0,0,1,777.6206665039062,41.79237365722656)"><path transform="matrix(0.017,0,0,-0.017,0,0)" d="M555 243L555 299L51 299L51 243Z" stroke="rgb(0,0,0)" stroke-opacity="1" stroke-width="8" fill="rgb(0,0,0)" fill-opacity="1"></path></g></g><g><g transform="matrix(1,0,0,1,791.2907104492188,41.79237365722656)"><path transform="matrix(0.017,0,0,-0.017,0,0)" d="M103 664L150 662C174 661 185 653 185 636C185 629 179 576 176 559L104 125C89 36 86 31 46 28L10 25L7 -3L39 -3L133 0L227 -3L259 -3L262 25L210 28C184 30 174 37 174 57C174 63 175 74 176 78L265 613C272 652 277 657 316 661L351 664L354 692L248 689C231 689 213 689 170 690L106 692ZM541 656L541 648C543 643 545 639 550 637C567 642 598 653 614 653C666 653 675 500 679 460C551 320 452 161 357 -2L367 -16C392 -5 417 4 443 13C486 159 593 308 685 428C693 365 716 13 733 -6C788 -42 860 44 902 74L902 87L890 87L890 88C873 77 844 55 823 55C784 55 776 188 771 219C756 326 731 672 715 689C679 728 583 667 541 656Z" stroke="rgb(0,0,0)" stroke-opacity="1" stroke-width="8" fill="rgb(0,0,0)" fill-opacity="1"></path></g></g><g><g transform="matrix(1,0,0,1,807.4411010742188,42.51066589355469)"><path transform="matrix(0.017,0,0,-0.017,0,0)" d="M51 726L32 700C87 636 187 526 187 266C187 -10 83 -131 32 -194L51 -215C104 -165 273 -23 273 265C273 542 108 675 51 726Z" stroke="rgb(0,0,0)" stroke-opacity="1" stroke-width="8" fill="rgb(0,0,0)" fill-opacity="1"></path></g></g></g></g><g><g><g><g><g transform="matrix(1,0,0,1,838.7092895507812,195.68687438964844)"><path transform="matrix(0.017,0,0,-0.017,0,0)" d="M579 -3L579 27L533 30C499 32 496 39 496 102L496 718L487 726C443 709 410 701 331 689L331 661L387 661C405 661 412 650 412 620L412 437C384 472 346 486 306 486C183 486 34 351 34 229C34 149 62 70 111 30C145 1 192 -12 257 -12C277 -12 300 -8 305 -4L416 89L411 -3C460 -1 476 0 488 0C506 0 570 -3 579 -3ZM412 350L412 221C412 156 410 146 397 123C369 76 320 45 273 45C185 45 122 130 122 249C122 358 176 422 266 422C345 422 412 366 412 350ZM860 -20C925 -20 1015 18 1027 36L1047 70L1034 80C970 42 947 33 904 33C839 33 785 62 757 111C738 144 731 172 729 230C750 227 780 226 814 226C900 226 1009 234 1056 244C1057 258 1058 267 1058 279C1058 394 984 469 872 469C835 469 790 464 750 440C668 392 636 323 636 219C636 25 771 -20 860 -20ZM969 267C945 264 894 261 843 261C800 261 757 264 731 270C731 317 735 339 748 365C769 409 812 436 860 436C893 436 919 423 937 396C959 363 966 334 969 267ZM1186 382L1186 94C1186 20 1219 -12 1296 -12C1319 -12 1343 -7 1349 0L1397 53L1384 70C1359 56 1344 51 1325 51C1286 51 1270 71 1270 120L1270 382L1398 382L1407 436L1270 430L1270 468C1270 510 1273 546 1281 610L1269 621C1245 606 1215 593 1184 583C1187 553 1188 534 1188 504L1188 434L1110 399L1110 378Z" stroke="rgb(0,0,0)" stroke-opacity="1" stroke-width="8" fill="rgb(0,0,0)" fill-opacity="1"></path></g></g></g><g><g transform="matrix(1,0,0,1,862.7273559570312,196.40516662597656)"><path transform="matrix(0.017,0,0,-0.017,0,0)" d="M146 266C146 526 243 632 301 700L282 726C225 675 60 542 60 266C60 159 85 58 133 -32C168 -99 200 -138 282 -215L301 -194C255 -137 146 -15 146 266Z" stroke="rgb(0,0,0)" stroke-opacity="1" stroke-width="8" fill="rgb(0,0,0)" fill-opacity="1"></path></g></g><g><g transform="matrix(1,0,0,1,868.3726196289062,195.68687438964844)"><path transform="matrix(0.017,0,0,-0.017,0,0)" d="M567 55C567 39 552 30 524 28L480 25L480 -3C582 0 582 0 602 0C622 0 622 0 724 -3L724 25L698 28C651 35 650 35 642 80L555 705L509 705L136 112C100 56 82 40 48 32L28 27L28 -3C120 0 120 0 140 0C159 0 161 0 247 -3L247 25L195 28C179 29 164 38 164 47C164 55 171 69 190 102L292 277L538 277L563 89L563 86C563 84 567 69 567 55ZM496 601L533 313L317 313Z" stroke="rgb(0,0,0)" stroke-opacity="1" stroke-width="8" fill="rgb(0,0,0)" fill-opacity="1"></path></g></g><g><g transform="matrix(1,0,0,1,884.5342407226562,195.68687438964844)"><path transform="matrix(0.017,0,0,-0.017,0,0)" d="M555 243L555 299L51 299L51 243Z" stroke="rgb(0,0,0)" stroke-opacity="1" stroke-width="8" fill="rgb(0,0,0)" fill-opacity="1"></path></g></g><g><g transform="matrix(1,0,0,1,898.2042846679688,195.68687438964844)"><path transform="matrix(0.017,0,0,-0.017,0,0)" d="M103 664L150 662C174 661 185 653 185 636C185 629 179 576 176 559L104 125C89 36 86 31 46 28L10 25L7 -3L39 -3L133 0L227 -3L259 -3L262 25L210 28C184 30 174 37 174 57C174 63 175 74 176 78L265 613C272 652 277 657 316 661L351 664L354 692L248 689C231 689 213 689 170 690L106 692ZM541 656L541 648C543 643 545 639 550 637C567 642 598 653 614 653C666 653 675 500 679 460C551 320 452 161 357 -2L367 -16C392 -5 417 4 443 13C486 159 593 308 685 428C693 365 716 13 733 -6C788 -42 860 44 902 74L902 87L890 87L890 88C873 77 844 55 823 55C784 55 776 188 771 219C756 326 731 672 715 689C679 728 583 667 541 656Z" stroke="rgb(0,0,0)" stroke-opacity="1" stroke-width="8" fill="rgb(0,0,0)" fill-opacity="1"></path></g></g><g><g transform="matrix(1,0,0,1,914.3546752929688,196.40516662597656)"><path transform="matrix(0.017,0,0,-0.017,0,0)" d="M51 726L32 700C87 636 187 526 187 266C187 -10 83 -131 32 -194L51 -215C104 -165 273 -23 273 265C273 542 108 675 51 726Z" stroke="rgb(0,0,0)" stroke-opacity="1" stroke-width="8" fill="rgb(0,0,0)" fill-opacity="1"></path></g></g><g><g transform="matrix(1,0,0,1,920.0000610351562,195.68687438964844)"><path transform="matrix(0.017,0,0,-0.017,0,0)" d="" stroke="rgb(0,0,0)" stroke-opacity="1" stroke-width="8" fill="rgb(0,0,0)" fill-opacity="1"></path></g></g><g><g transform="matrix(1,0,0,1,929.3265991210938,195.68687438964844)"><path transform="matrix(0.017,0,0,-0.017,0,0)" d="M604 347L604 406L65 406L65 347ZM604 134L604 193L65 193L65 134Z" stroke="rgb(0,0,0)" stroke-opacity="1" stroke-width="8" fill="rgb(0,0,0)" fill-opacity="1"></path></g></g><g><g transform="matrix(1,0,0,1,945.7800903320312,195.68687438964844)"><path transform="matrix(0.017,0,0,-0.017,0,0)" d="M512 689C357 689 278 566 278 324C278 207 299 106 334 57C369 8 425 -20 487 -20C638 -20 714 110 714 366C714 585 649 689 512 689ZM494 654C591 654 630 556 630 316C630 103 592 15 500 15C403 15 362 116 362 360C362 571 399 654 494 654Z" stroke="rgb(0,0,0)" stroke-opacity="1" stroke-width="8" fill="rgb(0,0,0)" fill-opacity="1"></path></g></g></g></g><g><g><g><g transform="matrix(1,0,0,1,465.791259765625,85.79910278320312)"><path transform="matrix(0.017,0,0,-0.017,0,0)" d="M209 656L209 648C211 643 213 639 218 637C235 642 266 653 282 653C334 653 343 500 347 460C219 320 120 161 25 -2L35 -16C60 -5 85 4 111 13C154 159 261 308 353 428C361 365 384 13 401 -6C456 -42 528 44 570 74L570 87L558 87L558 88C541 77 512 55 491 55C452 55 444 188 439 219C424 326 399 672 383 689C347 728 251 667 209 656Z" stroke="rgb(0,0,0)" stroke-opacity="1" stroke-width="8" fill="rgb(0,0,0)" fill-opacity="1"></path></g></g><g><g transform="matrix(1,0,0,1,481.3917236328125,85.79910278320312)"><path transform="matrix(0.017,0,0,-0.017,0,0)" d="M604 347L604 406L65 406L65 347ZM604 134L604 193L65 193L65 134Z" stroke="rgb(0,0,0)" stroke-opacity="1" stroke-width="8" fill="rgb(0,0,0)" fill-opacity="1"></path></g></g><g><g transform="matrix(1,0,0,1,497.84515380859375,85.79910278320312)"><path transform="matrix(0.017,0,0,-0.017,0,0)" d="M529 181L529 106C529 46 518 32 469 30L407 27L407 -3C540 0 540 0 564 0C588 0 588 0 721 -3L721 27L673 30C624 33 613 46 613 106L613 181C672 181 693 180 721 177L721 248L613 245L614 697L534 667L251 204L251 181ZM529 245L314 245L529 597Z" stroke="rgb(0,0,0)" stroke-opacity="1" stroke-width="8" fill="rgb(0,0,0)" fill-opacity="1"></path></g></g></g></g><g><g><g><g transform="matrix(1,0,0,1,468.78790283203125,239.7946319580078)"><path transform="matrix(0.017,0,0,-0.017,0,0)" d="M209 656L209 648C211 643 213 639 218 637C235 642 266 653 282 653C334 653 343 500 347 460C219 320 120 161 25 -2L35 -16C60 -5 85 4 111 13C154 159 261 308 353 428C361 365 384 13 401 -6C456 -42 528 44 570 74L570 87L558 87L558 88C541 77 512 55 491 55C452 55 444 188 439 219C424 326 399 672 383 689C347 728 251 667 209 656Z" stroke="rgb(0,0,0)" stroke-opacity="1" stroke-width="8" fill="rgb(0,0,0)" fill-opacity="1"></path></g></g><g><g transform="matrix(1,0,0,1,484.38836669921875,239.7946319580078)"><path transform="matrix(0.017,0,0,-0.017,0,0)" d="M604 347L604 406L65 406L65 347ZM604 134L604 193L65 193L65 134Z" stroke="rgb(0,0,0)" stroke-opacity="1" stroke-width="8" fill="rgb(0,0,0)" fill-opacity="1"></path></g></g><g><g transform="matrix(1,0,0,1,504.231201171875,239.7946319580078)"><path transform="matrix(0.017,0,0,-0.017,0,0)" d="M555 243L555 299L51 299L51 243Z" stroke="rgb(0,0,0)" stroke-opacity="1" stroke-width="8" fill="rgb(0,0,0)" fill-opacity="1"></path></g></g><g><g transform="matrix(1,0,0,1,517.9012451171875,239.7946319580078)"><path transform="matrix(0.017,0,0,-0.017,0,0)" d="M16 23L16 -3C203 -3 203 0 239 0C275 0 275 -3 468 -3L468 82C353 77 307 81 122 77L304 270C401 373 431 428 431 503C431 618 353 689 226 689C154 689 105 669 56 619L39 483L68 483L81 529C97 587 133 612 200 612C286 612 341 558 341 473C341 398 299 324 186 204Z" stroke="rgb(0,0,0)" stroke-opacity="1" stroke-width="8" fill="rgb(0,0,0)" fill-opacity="1"></path></g></g></g></g></svg>
</svg>
