<svg xmlns="http://www.w3.org/2000/svg" xmlns:xlink="http://www.w3.org/1999/xlink" x="0" y="0" width="661.8285522460938" height="155.6571502685547" style="
        width:661.8285522460938px;
        height:155.6571502685547px;
        background: transparent;
        fill: none;
">
        
        
        <svg xmlns="http://www.w3.org/2000/svg" class="role-diagram-draw-area"><g class="shapes-region" style="stroke: black; fill: none;"><g class="composite-shape"><path class="real" d=" M281.97,37 L362,37 L362,117.57 L281.97,117.57 Z" style="stroke-width: 1; stroke: none; fill: none; fill-opacity: 1;"/><path class="real" d=" M281.97,37 L281.97,117.57 M301.97,37 L301.97,117.57 M321.97,37 L321.97,117.57 M341.97,37 L341.97,117.57 M361.97,37 L361.97,117.57" style="stroke-width: 1; stroke: rgb(0, 0, 0); fill: none; fill-opacity: 1;"/><path class="real" d=" M281.97,37 L362,37 M281.97,57 L362,57 M281.97,77 L362,77 M281.97,97 L362,97 M281.97,117 L362,117" style="stroke-width: 1; stroke: rgb(0, 0, 0); fill: none; fill-opacity: 1;"/><path class="real" d=" " style="stroke-width: 1; stroke: rgb(0, 0, 0); fill: none; fill-opacity: 1;"/></g><g class="composite-shape"><path class="real" d=" M283,38.19 L300.97,38.19 L300.97,56.16 L283,56.16 Z" style="stroke-width: 1; stroke: rgb(0, 0, 0); stroke-opacity: 0; fill: rgb(74, 144, 226); fill-opacity: 1;"/></g><g class="composite-shape"><path class="real" d=" M303,58.19 L320.97,58.19 L320.97,76.16 L303,76.16 Z" style="stroke-width: 1; stroke: rgb(0, 0, 0); stroke-opacity: 0; fill: rgb(74, 144, 226); fill-opacity: 1;"/></g><g class="composite-shape"><path class="real" d=" M323,78.19 L340.97,78.19 L340.97,96.16 L323,96.16 Z" style="stroke-width: 1; stroke: rgb(0, 0, 0); stroke-opacity: 0; fill: rgb(74, 144, 226); fill-opacity: 1;"/></g><g class="composite-shape"><path class="real" d=" M343,98.19 L360.97,98.19 L360.97,116.16 L343,116.16 Z" style="stroke-width: 1; stroke: rgb(0, 0, 0); stroke-opacity: 0; fill: rgb(74, 144, 226); fill-opacity: 1;"/></g><g class="composite-shape"><path class="real" d=" M303,38.19 L320.97,38.19 L320.97,56.16 L303,56.16 Z" style="stroke-width: 1; stroke: rgb(0, 0, 0); stroke-opacity: 0; fill: rgb(139, 87, 42); fill-opacity: 1;"/></g><g class="composite-shape"><path class="real" d=" M323,38.19 L340.97,38.19 L340.97,56.16 L323,56.16 Z" style="stroke-width: 1; stroke: rgb(0, 0, 0); stroke-opacity: 0; fill: rgb(139, 87, 42); fill-opacity: 1;"/></g><g class="composite-shape"><path class="real" d=" M343,58.19 L360.97,58.19 L360.97,76.16 L343,76.16 Z" style="stroke-width: 1; stroke: rgb(0, 0, 0); stroke-opacity: 0; fill: rgb(139, 87, 42); fill-opacity: 1;"/></g><g class="composite-shape"><path class="real" d=" M283,58.19 L300.97,58.19 L300.97,76.16 L283,76.16 Z" style="stroke-width: 1; stroke: rgb(0, 0, 0); stroke-opacity: 0; fill: rgb(139, 87, 42); fill-opacity: 1;"/></g><g class="composite-shape"><path class="real" d=" M283,78.19 L300.97,78.19 L300.97,96.16 L283,96.16 Z" style="stroke-width: 1; stroke: rgb(0, 0, 0); stroke-opacity: 0; fill: rgb(139, 87, 42); fill-opacity: 1;"/></g><g class="composite-shape"><path class="real" d=" M303,98.19 L320.97,98.19 L320.97,116.16 L303,116.16 Z" style="stroke-width: 1; stroke: rgb(0, 0, 0); stroke-opacity: 0; fill: rgb(139, 87, 42); fill-opacity: 1;"/></g><g class="composite-shape"><path class="real" d=" M303,78.19 L320.97,78.19 L320.97,96.16 L303,96.16 Z" style="stroke-width: 1; stroke: rgb(0, 0, 0); stroke-opacity: 0; fill: rgb(139, 87, 42); fill-opacity: 1;"/></g><g class="composite-shape"><path class="real" d=" M323,98.19 L340.97,98.19 L340.97,116.16 L323,116.16 Z" style="stroke-width: 1; stroke: rgb(0, 0, 0); stroke-opacity: 0; fill: rgb(139, 87, 42); fill-opacity: 1;"/></g><g class="composite-shape"><path class="real" d=" M323,58.19 L340.97,58.19 L340.97,76.16 L323,76.16 Z" style="stroke-width: 1; stroke: rgb(0, 0, 0); stroke-opacity: 0; fill: rgb(139, 87, 42); fill-opacity: 1;"/></g><g class="composite-shape"><path class="real" d=" M343,78.19 L360.97,78.19 L360.97,96.16 L343,96.16 Z" style="stroke-width: 1; stroke: rgb(0, 0, 0); stroke-opacity: 0; fill: rgb(139, 87, 42); fill-opacity: 1;"/></g><g class="composite-shape"><path class="real" d=" M343,38.19 L360.97,38.19 L360.97,56.16 L343,56.16 Z" style="stroke-width: 1; stroke: rgb(0, 0, 0); stroke-opacity: 0; fill: rgb(139, 87, 42); fill-opacity: 1;"/></g><g class="composite-shape"><path class="real" d=" M283,98.19 L300.97,98.19 L300.97,116.16 L283,116.16 Z" style="stroke-width: 1; stroke: rgb(0, 0, 0); stroke-opacity: 0; fill: rgb(139, 87, 42); fill-opacity: 1;"/></g><g class="composite-shape"><path class="real" d=" M432,39.03 L449.97,39.03 L449.97,57 L432,57 Z" style="stroke-width: 1; stroke: rgb(0, 0, 0); stroke-opacity: 0; fill: rgb(74, 144, 226); fill-opacity: 1;"/></g><g class="composite-shape"><path class="real" d=" M432,99.03 L449.97,99.03 L449.97,117 L432,117 Z" style="stroke-width: 1; stroke: rgb(0, 0, 0); stroke-opacity: 0; fill: rgb(139, 87, 42); fill-opacity: 1;"/></g><g class="composite-shape"><path class="real" d=" M433.74,30 Q426.74,30 426.74,37 L426.74,67.5 Q426.74,77.5 419.74,77.5 Q426.74,77.5 426.74,87.5 M426.74,84.5 L426.74,118 Q426.74,125 433.74,125" style="stroke-width: 1; stroke: rgb(0, 0, 0); fill: none; fill-opacity: 1;"/></g><g/></g><g/><g/><g/></svg>
        <svg xmlns="http://www.w3.org/2000/svg" xmlns:xlink="http://www.w3.org/1999/xlink" width="660" height="153.8285675048828" style="width:660px;height:153.8285675048828px;font-family:Asana-Math, Asana;background:transparent;"><g><g><g><g transform="matrix(1,0,0,1,231.914306640625,84.9142837524414)"><path transform="matrix(0.017,0,0,-0.017,0,0)" d="M567 55C567 39 552 30 524 28L480 25L480 -3C582 0 582 0 602 0C622 0 622 0 724 -3L724 25L698 28C651 35 650 35 642 80L555 705L509 705L136 112C100 56 82 40 48 32L28 27L28 -3C120 0 120 0 140 0C159 0 161 0 247 -3L247 25L195 28C179 29 164 38 164 47C164 55 171 69 190 102L292 277L538 277L563 89L563 86C563 84 567 69 567 55ZM496 601L533 313L317 313Z" stroke="rgb(0,0,0)" stroke-opacity="1" stroke-width="8" fill="rgb(0,0,0)" fill-opacity="1"></path></g></g><g><g transform="matrix(1,0,0,1,254.0142822265625,84.9142837524414)"><path transform="matrix(0.017,0,0,-0.017,0,0)" d="M604 347L604 406L65 406L65 347ZM604 134L604 193L65 193L65 134Z" stroke="rgb(0,0,0)" stroke-opacity="1" stroke-width="8" fill="rgb(0,0,0)" fill-opacity="1"></path></g></g></g></g><g><g><g><g transform="matrix(1,0,0,1,464.0142822265625,52.74999237060547)"><path transform="matrix(0.017,0,0,-0.017,0,0)" d="M65 0L604 252L604 273L65 528L65 469L503 264L65 59Z" stroke="rgb(0,0,0)" stroke-opacity="1" stroke-width="8" fill="rgb(0,0,0)" fill-opacity="1"></path></g></g><g><g transform="matrix(1,0,0,1,480.471435546875,52.74999237060547)"><path transform="matrix(0.017,0,0,-0.017,0,0)" d="M512 689C357 689 278 566 278 324C278 207 299 106 334 57C369 8 425 -20 487 -20C638 -20 714 110 714 366C714 585 649 689 512 689ZM494 654C591 654 630 556 630 316C630 103 592 15 500 15C403 15 362 116 362 360C362 571 399 654 494 654Z" stroke="rgb(0,0,0)" stroke-opacity="1" stroke-width="8" fill="rgb(0,0,0)" fill-opacity="1"></path></g></g></g></g><g><g><g><g transform="matrix(1,0,0,1,466.0142822265625,111.74999237060547)"><path transform="matrix(0.017,0,0,-0.017,0,0)" d="M604 -15L604 -74L65 181L65 240ZM604 615L604 555L166 349L604 144L604 85L65 340L65 361Z" stroke="rgb(0,0,0)" stroke-opacity="1" stroke-width="8" fill="rgb(0,0,0)" fill-opacity="1"></path></g></g><g><g transform="matrix(1,0,0,1,482.471435546875,111.74999237060547)"><path transform="matrix(0.017,0,0,-0.017,0,0)" d="M512 689C357 689 278 566 278 324C278 207 299 106 334 57C369 8 425 -20 487 -20C638 -20 714 110 714 366C714 585 649 689 512 689ZM494 654C591 654 630 556 630 316C630 103 592 15 500 15C403 15 362 116 362 360C362 571 399 654 494 654Z" stroke="rgb(0,0,0)" stroke-opacity="1" stroke-width="8" fill="rgb(0,0,0)" fill-opacity="1"></path></g></g></g></g><g><g><g><text x="383.914306640625" y="68.74285125732422" style="white-space:pre;stroke:none;fill:rgb(0,0,0);fill-opacity:1;font-size:15px;font-family:Arial, Helvetica, sans-serif;font-weight:400;font-style:normal;dominant-baseline:text-before-edge;text-decoration:none solid rgb(0, 0, 0);">dove</text></g></g></g></svg>
</svg>
