<svg xmlns="http://www.w3.org/2000/svg" xmlns:xlink="http://www.w3.org/1999/xlink" x="0" y="0" width="661.0667114257812" height="187.1333465576172" style="
        width:661.0667114257812px;
        height:187.1333465576172px;
        background: transparent;
        fill: none;
">
        
        
        <svg xmlns="http://www.w3.org/2000/svg" class="role-diagram-draw-area"><g class="shapes-region" style="stroke: black; fill: none;"><g class="arrow-line"><path class="connection real" stroke-dasharray="" d="  M270,132 C309.6,102.3 349.79,136.28 389.4,107.86" style="stroke: rgb(0, 0, 0); stroke-width: 1; fill: none; fill-opacity: 1;"/><g stroke="#000" transform="matrix(-0.7999989281485084,0.6000014291326627,-0.6000014291326627,-0.7999989281485084,390.59997558593756,106.97499084472656)" style="stroke: rgb(0, 0, 0); stroke-width: 1;"><path d=" M10.93,-3.29 Q4.96,-0.45 0,0 Q4.96,0.45 10.93,3.29"/></g></g><g/></g><g/><g/><g/></svg>
        <svg xmlns="http://www.w3.org/2000/svg" xmlns:xlink="http://www.w3.org/1999/xlink" width="660.0000610351562" height="186.06668090820312" style="width:660.0000610351562px;height:186.06668090820312px;font-family:Asana-Math, Asana;background:transparent;"><g><g><g><g transform="matrix(1,0,0,1,400.5333251953125,99.53334045410156)"><path transform="matrix(0.017,0,0,-0.017,0,0)" d="M345 437L329 437L350 549C366 635 394 673 440 673C470 673 497 658 512 634L522 638C527 654 537 685 545 705L550 720C534 727 503 733 480 733C469 733 453 730 445 726C421 715 339 654 316 630C294 608 282 578 271 521L256 442C215 422 195 414 170 405L165 383L246 383L237 327C207 132 170 -54 148 -123C130 -182 100 -213 64 -213C41 -213 30 -206 12 -184L-2 -188C-6 -211 -20 -259 -25 -268C-16 -273 -1 -276 10 -276C51 -276 105 -245 144 -198C215 -114 235 -18 319 383L423 383C427 402 434 425 440 439L436 446C407 439 408 437 345 437ZM559 1C574 -7 590 -11 602 -11C635 -11 674 18 705 65L781 182L792 113C805 28 828 -11 864 -11C886 -11 918 6 950 35L999 79L990 98C954 68 929 53 913 53C898 53 885 63 875 83C866 102 855 139 850 168L832 269L867 318C914 383 941 406 972 406C988 406 1000 398 1005 383L1019 387L1034 472C1022 479 1013 482 1004 482C964 482 924 446 862 354L825 299L819 347C807 446 780 482 721 482C695 482 673 474 664 461L606 378L623 368C653 402 673 416 692 416C725 416 747 375 764 277L775 215L735 153C692 86 658 54 630 54C615 54 604 58 602 63L591 91L571 88C571 53 563 27 559 1Z" stroke="rgb(0,0,0)" stroke-opacity="1" stroke-width="8" fill="rgb(0,0,0)" fill-opacity="1"></path></g></g></g></g></svg>
</svg>
