<svg xmlns="http://www.w3.org/2000/svg" xmlns:xlink="http://www.w3.org/1999/xlink" x="0" y="0" width="661.1753540039062" height="311.1753845214844" style="
        width:661.1753540039062px;
        height:311.1753845214844px;
        background: transparent;
        fill: none;
">
        
        
        <svg xmlns="http://www.w3.org/2000/svg" class="role-diagram-draw-area"><g class="shapes-region" style="stroke: black; fill: none;"><g class="composite-shape" data-amt="diagram/shapes/plot" transform="matrix(1,0,0,1,40,0)"><g><g><g class="test-xgi"><line x1="47.105468750000014" y1="0" x2="47.105468750000014" y2="273.8108367919922" fill="none" stroke="#c3c3c3" stroke-width="0.5"/><line x1="99.684375" y1="0" x2="99.684375" y2="273.8108367919922" fill="none" stroke="#c3c3c3" stroke-width="0.5"/><line x1="152.26328125" y1="0" x2="152.26328125" y2="273.8108367919922" fill="none" stroke="#c3c3c3" stroke-width="0.5"/><line x1="204.8421875" y1="0" x2="204.8421875" y2="273.8108367919922" fill="none" stroke="#c3c3c3" stroke-width="0.5"/><line x1="257.42109375" y1="0" x2="257.42109375" y2="273.8108367919922" fill="none" stroke="#c3c3c3" stroke-width="0.5"/><line x1="310" y1="0" x2="310" y2="273.8108367919922" fill="none" stroke="#c3c3c3" stroke-width="0.5"/><line x1="362.57890625000005" y1="0" x2="362.57890625000005" y2="273.8108367919922" fill="none" stroke="#c3c3c3" stroke-width="0.5"/><line x1="415.1578125" y1="0" x2="415.1578125" y2="273.8108367919922" fill="none" stroke="#c3c3c3" stroke-width="0.5"/><line x1="467.73671874999997" y1="0" x2="467.73671874999997" y2="273.8108367919922" fill="none" stroke="#c3c3c3" stroke-width="0.5"/><line x1="520.315625" y1="0" x2="520.315625" y2="273.8108367919922" fill="none" stroke="#c3c3c3" stroke-width="0.5"/><line x1="572.89453125" y1="0" x2="572.89453125" y2="273.8108367919922" fill="none" stroke="#c3c3c3" stroke-width="0.5"/></g><g class="test-ygi"><line x1="0" y1="241.9463836669922" x2="620" y2="241.9463836669922" fill="none" stroke="#c3c3c3" stroke-width="0.5"/><line x1="0" y1="189.3674774169922" x2="620" y2="189.3674774169922" fill="none" stroke="#c3c3c3" stroke-width="0.5"/><line x1="0" y1="136.7885711669922" x2="620" y2="136.7885711669922" fill="none" stroke="#c3c3c3" stroke-width="0.5"/><line x1="0" y1="84.20966491699218" x2="620" y2="84.20966491699218" fill="none" stroke="#c3c3c3" stroke-width="0.5"/><line x1="0" y1="31.630758666992193" x2="620" y2="31.630758666992193" fill="none" stroke="#c3c3c3" stroke-width="0.5"/></g></g><g><g class="test-xti" style="font-family: Asana-Math, Asana;"><line x1="0" y1="136.7885711669922" x2="616" y2="136.7885711669922" fill="none" stroke="rgb(50,50,50)" stroke-opacity="1" stroke-width="1"/><line x1="47.105468750000014" y1="132.7885711669922" x2="47.105468750000014" y2="140.7885711669922" fill="none" stroke="rgb(50,50,50)" stroke-opacity="1" stroke-width="1"/><line x1="99.684375" y1="132.7885711669922" x2="99.684375" y2="140.7885711669922" fill="none" stroke="rgb(50,50,50)" stroke-opacity="1" stroke-width="1"/><line x1="152.26328125" y1="132.7885711669922" x2="152.26328125" y2="140.7885711669922" fill="none" stroke="rgb(50,50,50)" stroke-opacity="1" stroke-width="1"/><line x1="204.8421875" y1="132.7885711669922" x2="204.8421875" y2="140.7885711669922" fill="none" stroke="rgb(50,50,50)" stroke-opacity="1" stroke-width="1"/><line x1="257.42109375" y1="132.7885711669922" x2="257.42109375" y2="140.7885711669922" fill="none" stroke="rgb(50,50,50)" stroke-opacity="1" stroke-width="1"/><line x1="362.57890625000005" y1="132.7885711669922" x2="362.57890625000005" y2="140.7885711669922" fill="none" stroke="rgb(50,50,50)" stroke-opacity="1" stroke-width="1"/><line x1="415.1578125" y1="132.7885711669922" x2="415.1578125" y2="140.7885711669922" fill="none" stroke="rgb(50,50,50)" stroke-opacity="1" stroke-width="1"/><line x1="467.73671874999997" y1="132.7885711669922" x2="467.73671874999997" y2="140.7885711669922" fill="none" stroke="rgb(50,50,50)" stroke-opacity="1" stroke-width="1"/><line x1="520.315625" y1="132.7885711669922" x2="520.315625" y2="140.7885711669922" fill="none" stroke="rgb(50,50,50)" stroke-opacity="1" stroke-width="1"/><line x1="572.89453125" y1="132.7885711669922" x2="572.89453125" y2="140.7885711669922" fill="none" stroke="rgb(50,50,50)" stroke-opacity="1" stroke-width="1"/><path d="M611,133.1885711669922 L619,136.7885711669922 L611,140.3885711669922 Z" stroke="none" stroke-width="1" fill="rgb(50,50,50)" fill-opacity="1"/></g><g class="test-yti" style="font-family: Asana-Math, Asana;"><line x1="310" y1="4" x2="310" y2="273.8108367919922" fill="none" stroke="rgb(50,50,50)" stroke-opacity="1" stroke-width="1"/><line x1="306" y1="241.9463836669922" x2="314" y2="241.9463836669922" fill="none" stroke="rgb(50,50,50)" stroke-opacity="1" stroke-width="1"/><line x1="306" y1="189.3674774169922" x2="314" y2="189.3674774169922" fill="none" stroke="rgb(50,50,50)" stroke-opacity="1" stroke-width="1"/><line x1="306" y1="84.20966491699218" x2="314" y2="84.20966491699218" fill="none" stroke="rgb(50,50,50)" stroke-opacity="1" stroke-width="1"/><line x1="306" y1="31.630758666992193" x2="314" y2="31.630758666992193" fill="none" stroke="rgb(50,50,50)" stroke-opacity="1" stroke-width="1"/><path d="M306.4,9 L310,1 L313.6,9 Z" stroke="none" stroke-width="1" fill="rgb(50,50,50)" fill-opacity="1"/></g><g class="test-plot-expression"><defs><clipPath id="cpi5qdfw4gt"><rect x="1" y="1" width="618" height="271.8108367919922"/></clipPath></defs><g clip-path="url(#cpi5qdfw4gt)"><path d=" M310.00,136.79 L310.04,136.79 L310.08,136.79 L310.13,136.79 L310.17,136.78 L310.21,136.78 L310.25,136.78 L310.30,136.77 L310.34,136.77 L310.38,136.76 L310.42,136.75 L310.46,136.75 L310.51,136.74 L310.55,136.73 L310.59,136.72 L310.63,136.71 L310.67,136.70 L310.71,136.69 L310.76,136.68 L310.80,136.67 L310.84,136.65 L310.88,136.64 L310.92,136.62 L310.96,136.61 L311.00,136.59 L311.04,136.58 L311.08,136.56 L311.12,136.54 L311.16,136.52 L311.20,136.50 L311.24,136.48 L311.27,136.46 L311.31,136.44 L311.35,136.42 L311.39,136.40 L311.43,136.37 L311.46,136.35 L311.50,136.33 L311.54,136.30 L311.57,136.28 L311.61,136.25 L311.65,136.22 L311.68,136.20 L311.72,136.17 L311.75,136.14 L311.79,136.11 L311.82,136.08 L311.85,136.05 L311.89,136.02 L311.92,135.99 L311.95,135.96 L311.98,135.92 L312.02,135.89 L312.05,135.86 L312.08,135.82 L312.11,135.79 L312.14,135.75 L312.17,135.71 L312.20,135.68 L312.23,135.64 L312.25,135.60 L312.28,135.56 L312.31,135.53 L312.34,135.49 L312.36,135.45 L312.39,135.41 L312.41,135.37 L312.44,135.32 L312.46,135.28 L312.49,135.24 L312.51,135.20 L312.53,135.15 L312.55,135.11 L312.58,135.07 L312.60,135.02 L312.62,134.98 L312.64,134.93 L312.66,134.89 L312.68,134.84 L312.69,134.79 L312.71,134.75 L312.73,134.70 L312.75,134.65 L312.76,134.60 L312.78,134.55 L312.79,134.50 L312.81,134.45 L312.82,134.40 L312.83,134.35 L312.84,134.30 L312.86,134.25 L312.87,134.20 L312.88,134.15 L312.89,134.10 L312.90,134.04 L312.90,133.99 L312.91,133.94 L312.92,133.89 L312.92,133.83 L312.93,133.78 L312.93,133.72 L312.94,133.67 L312.94,133.61 L312.95,133.56 L312.95,133.50 L312.95,133.45 L312.95,133.39 L312.95,133.34 L312.95,133.28 L312.95,133.22 L312.95,133.17 L312.94,133.11 L312.94,133.05 L312.94,133.00 L312.93,132.94 L312.92,132.88 L312.92,132.82 L312.91,132.77 L312.90,132.71 L312.89,132.65 L312.88,132.59 L312.87,132.53 L312.86,132.48 L312.85,132.42 L312.84,132.36 L312.83,132.30 L312.81,132.24 L312.80,132.18 L312.78,132.12 L312.77,132.06 L312.75,132.01 L312.73,131.95 L312.71,131.89 L312.69,131.83 L312.67,131.77 L312.65,131.71 L312.63,131.65 L312.61,131.59 L312.58,131.53 L312.56,131.47 L312.54,131.42 L312.51,131.36 L312.48,131.30 L312.46,131.24 L312.43,131.18 L312.40,131.12 L312.37,131.06 L312.34,131.01 L312.31,130.95 L312.28,130.89 L312.24,130.83 L312.21,130.77 L312.18,130.72 L312.14,130.66 L312.10,130.60 L312.07,130.54 L312.03,130.49 L311.99,130.43 L311.95,130.37 L311.91,130.32 L311.87,130.26 L311.83,130.21 L311.79,130.15 L311.75,130.10 L311.70,130.04 L311.66,129.99 L311.61,129.93 L311.57,129.88 L311.52,129.82 L311.47,129.77 L311.42,129.72 L311.38,129.66 L311.33,129.61 L311.27,129.56 L311.22,129.51 L311.17,129.46 L311.12,129.40 L311.06,129.35 L311.01,129.30 L310.96,129.25 L310.90,129.20 L310.84,129.15 L310.79,129.11 L310.73,129.06 L310.67,129.01 L310.61,128.96 L310.55,128.91 L310.49,128.87 L310.43,128.82 L310.36,128.78 L310.30,128.73 L310.24,128.69 L310.17,128.64 L310.11,128.60 L310.04,128.56 L309.97,128.51 L309.91,128.47 L309.84,128.43 L309.77,128.39 L309.70,128.35 L309.63,128.31 L309.56,128.27 L309.49,128.23 L309.42,128.19 L309.35,128.16 L309.27,128.12 L309.20,128.08 L309.12,128.05 L309.05,128.01 L308.97,127.98 L308.90,127.95 L308.82,127.91 L308.74,127.88 L308.66,127.85 L308.59,127.82 L308.51,127.79 L308.43,127.76 L308.35,127.73 L308.26,127.70 L308.18,127.67 L308.10,127.65 L308.02,127.62 L307.94,127.60 L307.85,127.57 L307.77,127.55 L307.68,127.53 L307.60,127.50 L307.51,127.48 L307.42,127.46 L307.34,127.44 L307.25,127.42 L307.16,127.41 L307.07,127.39 L306.99,127.37 L306.90,127.36 L306.81,127.34 L306.72,127.33 L306.63,127.31 L306.54,127.30 L306.44,127.29 L306.35,127.28 L306.26,127.27 L306.17,127.26 L306.08,127.25 L305.98,127.25 L305.89,127.24 L305.79,127.23 L305.70,127.23 L305.60,127.23 L305.51,127.22 L305.41,127.22 L305.32,127.22 L305.22,127.22 L305.13,127.22 L305.03,127.22 L304.93,127.23 L304.84,127.23 L304.74,127.24 L304.64,127.24 L304.54,127.25 L304.44,127.26 L304.35,127.26 L304.25,127.27 L304.15,127.28 L304.05,127.30 L303.95,127.31 L303.85,127.32 L303.75,127.34 L303.65,127.35 L303.55,127.37 L303.45,127.39 L303.35,127.41 L303.25,127.42 L303.15,127.45 L303.05,127.47 L302.95,127.49 L302.85,127.51 L302.75,127.54 L302.65,127.56 L302.55,127.59 L302.44,127.62 L302.34,127.65 L302.24,127.68 L302.14,127.71 L302.04,127.74 L301.94,127.77 L301.84,127.81 L301.74,127.84 L301.64,127.88 L301.54,127.91 L301.43,127.95 L301.33,127.99 L301.23,128.03 L301.13,128.07 L301.03,128.11 L300.93,128.16 L300.83,128.20 L300.73,128.25 L300.63,128.29 L300.53,128.34 L300.43,128.39 L300.33,128.44 L300.23,128.49 L300.13,128.54 L300.03,128.60 L299.94,128.65 L299.84,128.71 L299.74,128.76 L299.64,128.82 L299.54,128.88 L299.44,128.94 L299.35,129.00 L299.25,129.06 L299.15,129.12 L299.06,129.18 L298.96,129.25 L298.87,129.31 L298.77,129.38 L298.68,129.45 L298.58,129.52 L298.49,129.59 L298.39,129.66 L298.30,129.73 L298.21,129.80 L298.11,129.88 L298.02,129.95 L297.93,130.03 L297.84,130.11 L297.75,130.19 L297.66,130.26 L297.57,130.34 L297.48,130.43 L297.39,130.51 L297.30,130.59 L297.21,130.68 L297.12,130.76 L297.04,130.85 L296.95,130.94 L296.87,131.02 L296.78,131.11 L296.70,131.20 L296.61,131.30 L296.53,131.39 L296.45,131.48 L296.36,131.58 L296.28,131.67 L296.20,131.77 L296.12,131.86 L296.04,131.96 L295.96,132.06 L295.89,132.16 L295.81,132.26 L295.73,132.37 L295.66,132.47 L295.58,132.57 L295.51,132.68 L295.43,132.78 L295.36,132.89 L295.29,133.00 L295.22,133.11 L295.15,133.22 L295.08,133.33 L295.01,133.44 L294.94,133.55 L294.87,133.66 L294.81,133.78 L294.74,133.89 L294.68,134.01 L294.61,134.12 L294.55,134.24 L294.49,134.36 L294.43,134.48 L294.37,134.60 L294.31,134.72 L294.25,134.84 L294.19,134.96 L294.13,135.09 L294.08,135.21 L294.02,135.33 L293.97,135.46 L293.92,135.59 L293.87,135.71 L293.82,135.84 L293.77,135.97 L293.72,136.10 L293.67,136.23 L293.63,136.36 L293.58,136.49 L293.54,136.62 L293.49,136.76 L293.45,136.89 L293.41,137.02 L293.37,137.16 L293.33,137.29 L293.29,137.43 L293.26,137.57 L293.22,137.70 L293.19,137.84 L293.15,137.98 L293.12,138.12 L293.09,138.26 L293.06,138.40 L293.03,138.54 L293.00,138.68 L292.98,138.83 L292.95,138.97 L292.93,139.11 L292.91,139.26 L292.88,139.40 L292.86,139.54 L292.84,139.69 L292.83,139.84 L292.81,139.98 L292.79,140.13 L292.78,140.28 L292.77,140.42 L292.76,140.57 L292.75,140.72 L292.74,140.87 L292.73,141.02 L292.72,141.17 L292.72,141.32 L292.71,141.47 L292.71,141.62 L292.71,141.77 L292.71,141.92 L292.71,142.07 L292.71,142.23 L292.72,142.38 L292.72,142.53 L292.73,142.68 L292.74,142.84 L292.75,142.99 L292.76,143.14 L292.77,143.30 L292.78,143.45 L292.80,143.61 L292.82,143.76 L292.83,143.92 L292.85,144.07 L292.87,144.23 L292.89,144.38 L292.92,144.54 L292.94,144.69 L292.97,144.85 L293.00,145.00 L293.02,145.16 L293.05,145.31 L293.09,145.47 L293.12,145.63 L293.15,145.78 L293.19,145.94 L293.23,146.09 L293.27,146.25 L293.31,146.41 L293.35,146.56 L293.39,146.72 L293.43,146.87 L293.48,147.03 L293.53,147.18 L293.58,147.34 L293.63,147.50 L293.68,147.65 L293.73,147.81 L293.79,147.96 L293.84,148.12 L293.90,148.27 L293.96,148.43 L294.02,148.58 L294.08,148.73 L294.14,148.89 L294.21,149.04 L294.27,149.19 L294.34,149.35 L294.41,149.50 L294.48,149.65 L294.55,149.80 L294.63,149.96 L294.70,150.11 L294.78,150.26 L294.86,150.41 L294.93,150.56 L295.01,150.71 L295.10,150.86 L295.18,151.01 L295.27,151.16 L295.35,151.31 L295.44,151.45 L295.53,151.60 L295.62,151.75 L295.71,151.90 L295.80,152.04 L295.90,152.19 L296.00,152.33 L296.09,152.48 L296.19,152.62 L296.29,152.76 L296.40,152.91 L296.50,153.05 L296.60,153.19 L296.71,153.33 L296.82,153.47 L296.93,153.61 L297.04,153.75 L297.15,153.88 L297.26,154.02 L297.38,154.16 L297.49,154.29 L297.61,154.43 L297.73,154.56 L297.85,154.70 L297.97,154.83 L298.09,154.96 L298.22,155.09 L298.34,155.22 L298.47,155.35 L298.60,155.48 L298.73,155.61 L298.86,155.74 L298.99,155.86 L299.12,155.99 L299.26,156.11 L299.39,156.24 L299.53,156.36 L299.67,156.48 L299.81,156.60 L299.95,156.72 L300.09,156.84 L300.24,156.96 L300.38,157.07 L300.53,157.19 L300.67,157.30 L300.82,157.42 L300.97,157.53 L301.12,157.64 L301.28,157.75 L301.43,157.86 L301.58,157.97 L301.74,158.07 L301.90,158.18 L302.06,158.28 L302.21,158.39 L302.38,158.49 L302.54,158.59 L302.70,158.69 L302.86,158.79 L303.03,158.89 L303.19,158.98 L303.36,159.08 L303.53,159.17 L303.70,159.26 L303.87,159.35 L304.04,159.44 L304.21,159.53 L304.39,159.62 L304.56,159.70 L304.74,159.79 L304.91,159.87 L305.09,159.95 L305.27,160.03 L305.45,160.11 L305.63,160.19 L305.81,160.27 L306.00,160.34 L306.18,160.42 L306.36,160.49 L306.55,160.56 L306.73,160.63 L306.92,160.70 L307.11,160.76 L307.30,160.83 L307.49,160.89 L307.68,160.95 L307.87,161.01 L308.06,161.07 L308.26,161.13 L308.45,161.18 L308.64,161.24 L308.84,161.29 L309.04,161.34 L309.23,161.39 L309.43,161.44 L309.63,161.48 L309.83,161.53 L310.03,161.57 L310.23,161.61 L310.43,161.65 L310.63,161.69 L310.83,161.73 L311.04,161.76 L311.24,161.80 L311.44,161.83 L311.65,161.86 L311.85,161.89 L312.06,161.91 L312.27,161.94 L312.47,161.96 L312.68,161.98 L312.89,162.00 L313.10,162.02 L313.31,162.03 L313.52,162.05 L313.73,162.06 L313.94,162.07 L314.15,162.08 L314.36,162.09 L314.57,162.10 L314.78,162.10 L314.99,162.10 L315.21,162.10 L315.42,162.10 L315.63,162.10 L315.85,162.09 L316.06,162.09 L316.28,162.08 L316.49,162.07 L316.70,162.06 L316.92,162.04 L317.13,162.03 L317.35,162.01 L317.57,161.99 L317.78,161.97 L318.00,161.94 L318.21,161.92 L318.43,161.89 L318.64,161.86 L318.86,161.83 L319.08,161.80 L319.29,161.77 L319.51,161.73 L319.73,161.69 L319.94,161.65 L320.16,161.61 L320.38,161.57 L320.59,161.52 L320.81,161.47 L321.02,161.42 L321.24,161.37 L321.46,161.32 L321.67,161.26 L321.89,161.21 L322.10,161.15 L322.32,161.09 L322.53,161.03 L322.75,160.96 L322.96,160.90 L323.18,160.83 L323.39,160.76 L323.61,160.68 L323.82,160.61 L324.03,160.54 L324.25,160.46 L324.46,160.38 L324.67,160.30 L324.88,160.21 L325.10,160.13 L325.31,160.04 L325.52,159.95 L325.73,159.86 L325.94,159.77 L326.15,159.67 L326.36,159.58 L326.57,159.48 L326.77,159.38 L326.98,159.28 L327.19,159.17 L327.39,159.07 L327.60,158.96 L327.80,158.85 L328.01,158.74 L328.21,158.62 L328.42,158.51 L328.62,158.39 L328.82,158.27 L329.02,158.15 L329.22,158.03 L329.42,157.90 L329.62,157.78 L329.82,157.65 L330.01,157.52 L330.21,157.39 L330.41,157.25 L330.60,157.12 L330.79,156.98 L330.99,156.84 L331.18,156.70 L331.37,156.56 L331.56,156.41 L331.75,156.27 L331.94,156.12 L332.13,155.97 L332.31,155.82 L332.50,155.66 L332.68,155.51 L332.87,155.35 L333.05,155.19 L333.23,155.03 L333.41,154.87 L333.59,154.71 L333.77,154.54 L333.94,154.37 L334.12,154.20 L334.29,154.03 L334.47,153.86 L334.64,153.69 L334.81,153.51 L334.98,153.33 L335.15,153.15 L335.31,152.97 L335.48,152.79 L335.64,152.61 L335.81,152.42 L335.97,152.24 L336.13,152.05 L336.29,151.86 L336.45,151.66 L336.60,151.47 L336.76,151.28 L336.91,151.08 L337.06,150.88 L337.21,150.68 L337.36,150.48 L337.51,150.28 L337.66,150.07 L337.80,149.87 L337.94,149.66 L338.09,149.45 L338.23,149.24 L338.36,149.03 L338.50,148.82 L338.64,148.60 L338.77,148.39 L338.90,148.17 L339.03,147.95 L339.16,147.73 L339.29,147.51 L339.41,147.29 L339.54,147.07 L339.66,146.84 L339.78,146.61 L339.90,146.39 L340.02,146.16 L340.13,145.93 L340.25,145.70 L340.36,145.46 L340.47,145.23 L340.58,144.99 L340.68,144.76 L340.79,144.52 L340.89,144.28 L340.99,144.04 L341.09,143.80 L341.19,143.56 L341.28,143.32 L341.37,143.07 L341.47,142.83 L341.56,142.58 L341.64,142.33 L341.73,142.08 L341.81,141.83 L341.89,141.58 L341.97,141.33 L342.05,141.08 L342.13,140.83 L342.20,140.57 L342.27,140.32 L342.34,140.06 L342.41,139.80 L342.47,139.54 L342.54,139.28 L342.60,139.03 L342.66,138.76 L342.72,138.50 L342.77,138.24 L342.82,137.98 L342.88,137.71 L342.92,137.45 L342.97,137.18 L343.02,136.92 L343.06,136.65 L343.10,136.38 L343.14,136.12 L343.17,135.85 L343.21,135.58 L343.24,135.31 L343.27,135.04 L343.29,134.77 L343.32,134.50 L343.34,134.22 L343.36,133.95 L343.38,133.68 L343.40,133.40 L343.41,133.13 L343.42,132.86 L343.43,132.58 L343.44,132.31 L343.44,132.03 L343.45,131.75 L343.45,131.48 L343.44,131.20 L343.44,130.92 L343.43,130.65 L343.42,130.37 L343.41,130.09 L343.40,129.81 L343.38,129.53 L343.36,129.26 L343.34,128.98 L343.32,128.70 L343.30,128.42 L343.27,128.14 L343.24,127.86 L343.21,127.58 L343.17,127.30 L343.13,127.02 L343.09,126.74 L343.05,126.46 L343.01,126.18 L342.96,125.90 L342.91,125.63 L342.86,125.35 L342.81,125.07 L342.75,124.79 L342.70,124.51 L342.63,124.23 L342.57,123.95 L342.51,123.67 L342.44,123.40 L342.37,123.12 L342.30,122.84 L342.22,122.56 L342.14,122.29 L342.06,122.01 L341.98,121.73 L341.90,121.46 L341.81,121.18 L341.72,120.91 L341.63,120.63 L341.54,120.36 L341.44,120.08 L341.34,119.81 L341.24,119.54 L341.14,119.26 L341.03,118.99 L340.93,118.72 L340.81,118.45 L340.70,118.18 L340.59,117.91 L340.47,117.64 L340.35,117.37 L340.23,117.11 L340.10,116.84 L339.98,116.57 L339.85,116.31 L339.72,116.04 L339.58,115.78 L339.45,115.52 L339.31,115.25 L339.17,114.99 L339.02,114.73 L338.88,114.47 L338.73,114.21 L338.58,113.96 L338.43,113.70 L338.27,113.44 L338.12,113.19 L337.96,112.94 L337.80,112.68 L337.63,112.43 L337.47,112.18 L337.30,111.93 L337.13,111.68 L336.96,111.44 L336.78,111.19 L336.60,110.95 L336.42,110.70 L336.24,110.46 L336.06,110.22 L335.87,109.98 L335.69,109.74 L335.50,109.50 L335.30,109.27 L335.11,109.03 L334.91,108.80 L334.71,108.57 L334.51,108.33 L334.31,108.11 L334.10,107.88 L333.90,107.65 L333.69,107.43 L333.48,107.20 L333.26,106.98 L333.05,106.76 L332.83,106.54 L332.61,106.32 L332.39,106.11 L332.17,105.89 L331.94,105.68 L331.71,105.47 L331.48,105.26 L331.25,105.05 L331.02,104.85 L330.78,104.64 L330.54,104.44 L330.31,104.24 L330.06,104.04 L329.82,103.84 L329.58,103.65 L329.33,103.46 L329.08,103.26 L328.83,103.07 L328.58,102.89 L328.32,102.70 L328.07,102.51 L327.81,102.33 L327.55,102.15 L327.29,101.97 L327.03,101.80 L326.76,101.62 L326.50,101.45 L326.23,101.28 L325.96,101.11 L325.69,100.94 L325.41,100.78 L325.14,100.62 L324.86,100.46 L324.58,100.30 L324.30,100.14 L324.02,99.99 L323.74,99.84 L323.46,99.69 L323.17,99.54 L322.88,99.39 L322.59,99.25 L322.30,99.11 L322.01,98.97 L321.72,98.84 L321.42,98.70 L321.13,98.57 L320.83,98.44 L320.53,98.31 L320.23,98.19 L319.93,98.07 L319.63,97.95 L319.33,97.83 L319.02,97.71 L318.71,97.60 L318.41,97.49 L318.10,97.38 L317.79,97.28 L317.48,97.17 L317.16,97.07 L316.85,96.97 L316.53,96.88 L316.22,96.78 L315.90,96.69 L315.58,96.61 L315.27,96.52 L314.95,96.44 L314.62,96.36 L314.30,96.28 L313.98,96.20 L313.66,96.13 L313.33,96.06 L313.00,95.99 L312.68,95.92 L312.35,95.86 L312.02,95.80 L311.69,95.74 L311.36,95.69 L311.03,95.64 L310.70,95.59 L310.37,95.54 L310.04,95.50 L309.70,95.46 L309.37,95.42 L309.03,95.38 L308.70,95.35 L308.36,95.32 L308.03,95.29 L307.69,95.27 L307.35,95.24 L307.01,95.22 L306.67,95.21 L306.33,95.19 L305.99,95.18 L305.65,95.17 L305.31,95.17 L304.97,95.16 L304.63,95.16 L304.29,95.17 L303.95,95.17 L303.61,95.18 L303.26,95.19 L302.92,95.20 L302.58,95.22 L302.24,95.24 L301.89,95.26 L301.55,95.29 L301.21,95.32 L300.86,95.35 L300.52,95.38 L300.17,95.42 L299.83,95.46 L299.49,95.50 L299.14,95.54 L298.80,95.59 L298.46,95.64 L298.11,95.70 L297.77,95.75 L297.43,95.81 L297.08,95.88 L296.74,95.94 L296.40,96.01 L296.05,96.08 L295.71,96.15 L295.37,96.23 L295.03,96.31 L294.69,96.39 L294.35,96.48 L294.01,96.57 L293.67,96.66 L293.33,96.75 L292.99,96.85 L292.65,96.95 L292.31,97.05 L291.97,97.16 L291.64,97.26 L291.30,97.38 L290.96,97.49 L290.63,97.61 L290.29,97.73 L289.96,97.85 L289.63,97.97 L289.29,98.10 L288.96,98.23 L288.63,98.37 L288.30,98.50 L287.97,98.64 L287.64,98.79 L287.31,98.93 L286.99,99.08 L286.66,99.23 L286.34,99.38 L286.01,99.54 L285.69,99.70 L285.37,99.86 L285.05,100.03 L284.73,100.20 L284.41,100.37 L284.09,100.54 L283.77,100.71 L283.46,100.89 L283.14,101.08 L282.83,101.26 L282.52,101.45 L282.21,101.64 L281.90,101.83 L281.59,102.02 L281.28,102.22 L280.98,102.42 L280.67,102.62 L280.37,102.83 L280.07,103.04 L279.77,103.25 L279.47,103.46 L279.17,103.68 L278.88,103.90 L278.58,104.12 L278.29,104.35 L278.00,104.57 L277.71,104.80 L277.42,105.03 L277.14,105.27 L276.85,105.51 L276.57,105.75 L276.29,105.99 L276.01,106.23 L275.73,106.48 L275.46,106.73 L275.19,106.98 L274.91,107.24 L274.64,107.49 L274.38,107.75 L274.11,108.01 L273.84,108.28 L273.58,108.55 L273.32,108.81 L273.06,109.09 L272.81,109.36 L272.55,109.64 L272.30,109.91 L272.05,110.20 L271.80,110.48 L271.55,110.76 L271.31,111.05 L271.07,111.34 L270.83,111.63 L270.59,111.93 L270.36,112.22 L270.12,112.52 L269.89,112.82 L269.66,113.13 L269.44,113.43 L269.21,113.74 L268.99,114.05 L268.77,114.36 L268.55,114.67 L268.34,114.99 L268.13,115.31 L267.92,115.63 L267.71,115.95 L267.50,116.27 L267.30,116.60 L267.10,116.92 L266.90,117.25 L266.71,117.58 L266.52,117.92 L266.33,118.25 L266.14,118.59 L265.95,118.93 L265.77,119.27 L265.59,119.61 L265.42,119.96 L265.24,120.30 L265.07,120.65 L264.90,121.00 L264.73,121.35 L264.57,121.70 L264.41,122.05 L264.25,122.41 L264.10,122.77 L263.95,123.13 L263.80,123.49 L263.65,123.85 L263.51,124.21 L263.36,124.58 L263.23,124.94 L263.09,125.31 L262.96,125.68 L262.83,126.05 L262.70,126.42 L262.58,126.80 L262.46,127.17 L262.34,127.55 L262.23,127.92 L262.11,128.30 L262.00,128.68 L261.90,129.06 L261.80,129.45 L261.70,129.83 L261.60,130.21 L261.51,130.60 L261.42,130.99 L261.33,131.37 L261.24,131.76 L261.16,132.15 L261.08,132.54 L261.01,132.93 L260.94,133.33 L260.87,133.72 L260.80,134.11 L260.74,134.51 L260.68,134.90 L260.63,135.30 L260.57,135.70 L260.52,136.10 L260.48,136.50 L260.43,136.90 L260.39,137.30 L260.36,137.70 L260.32,138.10 L260.29,138.50 L260.27,138.91 L260.24,139.31 L260.22,139.71 L260.21,140.12 L260.19,140.52 L260.18,140.93 L260.17,141.33 L260.17,141.74 L260.17,142.15 L260.17,142.55 L260.18,142.96 L260.19,143.37 L260.20,143.78 L260.22,144.18 L260.24,144.59 L260.26,145.00 L260.28,145.41 L260.31,145.82 L260.35,146.23 L260.38,146.63 L260.42,147.04 L260.47,147.45 L260.51,147.86 L260.56,148.27 L260.61,148.68 L260.67,149.09 L260.73,149.49 L260.79,149.90 L260.86,150.31 L260.93,150.72 L261.00,151.13 L261.08,151.53 L261.16,151.94 L261.24,152.35 L261.33,152.75 L261.42,153.16 L261.51,153.56 L261.61,153.97 L261.71,154.37 L261.82,154.78 L261.92,155.18 L262.03,155.58 L262.15,155.99 L262.26,156.39 L262.38,156.79 L262.51,157.19 L262.64,157.59 L262.77,157.99 L262.90,158.39 L263.04,158.78 L263.18,159.18 L263.32,159.58 L263.47,159.97 L263.62,160.36 L263.78,160.76 L263.93,161.15 L264.09,161.54 L264.26,161.93 L264.43,162.32 L264.60,162.71 L264.77,163.10 L264.95,163.48 L265.13,163.87 L265.31,164.25 L265.50,164.63 L265.69,165.01 L265.88,165.39" style="stroke-width: 2; stroke: rgb(74, 144, 226); stroke-opacity: 1;"/></g></g><g class="test-xtl" style="font-family: &quot;Open Sans&quot;, verdana, arial, sans-serif;"><text text-anchor="middle" font-size="11" dominant-baseline="hanging" stroke="none" fill="rgb(50,50,50)" fill-opacity="1" x="43.970468750000016" y="143.7885711669922">-50</text><text text-anchor="middle" font-size="11" dominant-baseline="hanging" stroke="none" fill="rgb(50,50,50)" fill-opacity="1" x="96.549375" y="143.7885711669922">-40</text><text text-anchor="middle" font-size="11" dominant-baseline="hanging" stroke="none" fill="rgb(50,50,50)" fill-opacity="1" x="149.12828125000001" y="143.7885711669922">-30</text><text text-anchor="middle" font-size="11" dominant-baseline="hanging" stroke="none" fill="rgb(50,50,50)" fill-opacity="1" x="201.7071875" y="143.7885711669922">-20</text><text text-anchor="middle" font-size="11" dominant-baseline="hanging" stroke="none" fill="rgb(50,50,50)" fill-opacity="1" x="254.28609375000002" y="143.7885711669922">-10</text><text text-anchor="middle" font-size="11" dominant-baseline="hanging" stroke="none" fill="rgb(50,50,50)" fill-opacity="1" x="362.57890625000005" y="143.7885711669922">10</text><text text-anchor="middle" font-size="11" dominant-baseline="hanging" stroke="none" fill="rgb(50,50,50)" fill-opacity="1" x="415.1578125" y="143.7885711669922">20</text><text text-anchor="middle" font-size="11" dominant-baseline="hanging" stroke="none" fill="rgb(50,50,50)" fill-opacity="1" x="467.73671874999997" y="143.7885711669922">30</text><text text-anchor="middle" font-size="11" dominant-baseline="hanging" stroke="none" fill="rgb(50,50,50)" fill-opacity="1" x="520.315625" y="143.7885711669922">40</text><text text-anchor="middle" font-size="11" dominant-baseline="hanging" stroke="none" fill="rgb(50,50,50)" fill-opacity="1" x="572.89453125" y="143.7885711669922">50</text><text text-anchor="middle" font-size="11" dominant-baseline="hanging" stroke="none" fill="rgb(50,50,50)" fill-opacity="1" x="302" y="141.7885711669922">0</text></g><g class="test-ytl" style="font-family: &quot;Open Sans&quot;, verdana, arial, sans-serif;"><text text-anchor="end" dominant-baseline="middle" font-size="11" stroke="none" fill="rgb(50,50,50)" fill-opacity="1" x="302" y="241.9463836669922">-20</text><text text-anchor="end" dominant-baseline="middle" font-size="11" stroke="none" fill="rgb(50,50,50)" fill-opacity="1" x="302" y="189.3674774169922">-10</text><text text-anchor="end" dominant-baseline="middle" font-size="11" stroke="none" fill="rgb(50,50,50)" fill-opacity="1" x="302" y="84.20966491699218">10</text><text text-anchor="end" dominant-baseline="middle" font-size="11" stroke="none" fill="rgb(50,50,50)" fill-opacity="1" x="302" y="31.630758666992193">20</text></g><rect class="real" x="1" y="1" width="618" height="271.8108367919922" style="fill: transparent; stroke: none;"/></g></g></g><g/></g><g/><g/><g/></svg>
        <svg xmlns="http://www.w3.org/2000/svg" xmlns:xlink="http://www.w3.org/1999/xlink" width="660" height="310" style="width:660px;height:310px;font-family:Asana-Math, Asana;background:transparent;"><g><g><g><g transform="matrix(1,0,0,1,447.57574462890625,31.499540328979492)"><path transform="matrix(0.017,0,0,-0.017,0,0)" d="M345 437L329 437L350 549C366 635 394 673 440 673C470 673 497 658 512 634L522 638C527 654 537 685 545 705L550 720C534 727 503 733 480 733C469 733 453 730 445 726C421 715 339 654 316 630C294 608 282 578 271 521L256 442C215 422 195 414 170 405L165 383L246 383L237 327C207 132 170 -54 148 -123C130 -182 100 -213 64 -213C41 -213 30 -206 12 -184L-2 -188C-6 -211 -20 -259 -25 -268C-16 -273 -1 -276 10 -276C51 -276 105 -245 144 -198C215 -114 235 -18 319 383L423 383C427 402 434 425 440 439L436 446C407 439 408 437 345 437Z" stroke="rgb(0,0,0)" stroke-opacity="1" stroke-width="8" fill="rgb(0,0,0)" fill-opacity="1"></path></g></g><g><g transform="matrix(1,0,0,1,456.92376708984375,32.08723545074463)"><path transform="matrix(0.017,0,0,-0.017,0,0)" d="M146 266C146 526 243 632 301 700L282 726C225 675 60 542 60 266C60 159 85 58 133 -32C168 -99 200 -138 282 -215L301 -194C255 -137 146 -15 146 266Z" stroke="rgb(0,0,0)" stroke-opacity="1" stroke-width="8" fill="rgb(0,0,0)" fill-opacity="1"></path></g></g><g><g transform="matrix(1,0,0,1,462.5711669921875,31.499540328979492)"><path transform="matrix(0.017,0,0,-0.017,0,0)" d="M125 390L69 107C68 99 56 61 56 31C56 6 67 -9 86 -9C121 -9 156 11 234 74L265 99L255 117L210 86C181 66 161 56 150 56C141 56 136 64 136 76C136 102 150 183 179 328L192 390L299 390L310 440C272 436 238 434 200 434C216 528 227 577 245 631L234 646C214 634 187 622 156 610L131 440C87 419 61 408 43 403L41 390Z" stroke="rgb(0,0,0)" stroke-opacity="1" stroke-width="8" fill="rgb(0,0,0)" fill-opacity="1"></path></g></g><g><g transform="matrix(1,0,0,1,468.21856689453125,32.08723545074463)"><path transform="matrix(0.017,0,0,-0.017,0,0)" d="M51 726L32 700C87 636 187 526 187 266C187 -10 83 -131 32 -194L51 -215C104 -165 273 -23 273 265C273 542 108 675 51 726Z" stroke="rgb(0,0,0)" stroke-opacity="1" stroke-width="8" fill="rgb(0,0,0)" fill-opacity="1"></path></g></g><g><g transform="matrix(1,0,0,1,473.86590576171875,31.499540328979492)"><path transform="matrix(0.017,0,0,-0.017,0,0)" d="" stroke="rgb(0,0,0)" stroke-opacity="1" stroke-width="8" fill="rgb(0,0,0)" fill-opacity="1"></path></g></g><g><g transform="matrix(1,0,0,1,483.19561767578125,31.499540328979492)"><path transform="matrix(0.017,0,0,-0.017,0,0)" d="M604 347L604 406L65 406L65 347ZM604 134L604 193L65 193L65 134Z" stroke="rgb(0,0,0)" stroke-opacity="1" stroke-width="8" fill="rgb(0,0,0)" fill-opacity="1"></path></g></g><g><g transform="matrix(1,0,0,1,499.641845703125,31.499540328979492)"><path transform="matrix(0.017,0,0,-0.017,0,0)" d="" stroke="rgb(0,0,0)" stroke-opacity="1" stroke-width="8" fill="rgb(0,0,0)" fill-opacity="1"></path></g></g><g><svg x="505.39947509765625" overflow="visible" y="8.292011260986328" height="37.3921012878418" width="7.649219512939453"><path d=" M 5.98 1.70 l -0.10 -0.10 q -1.09 0.03 -2.16 0.03 q -1.02 0.00 -2.14 -0.03 l -0.15 0.22 q 0.15 0.58 0.15 3.15 v 0.85 h 1.43 v -0.85 q 0.00 -1.31 0.07 -2.14 q 0.05 -0.60 1.19 -0.60 h 1.65 l 0.07 -0.09 v -0.44 z  M 1.58 5.63 v 26.14 h 1.43 v -26.14 z " style="fill:rgb(0,0,0);fill-opacity:1;stroke-width:1px;stroke:none;stroke-opacity:1;"></path><path d=" M 5.98 35.69 l -0.10 0.10 q -1.09 -0.03 -2.16 -0.03 q -1.02 0.00 -2.14 0.03 l -0.15 -0.22 q 0.15 -0.58 0.15 -3.15 v -0.85 h 1.43 v 0.85 q 0.00 1.31 0.07 2.14 q 0.05 0.60 1.19 0.60 h 1.65 l 0.07 0.09 v 0.44 z" style="fill:rgb(0,0,0);fill-opacity:1;stroke-width:1px;stroke:none;stroke-opacity:1;"></path></svg></g><g><g transform="matrix(1,0,0,1,512.3966674804688,31.499540328979492)"><path transform="matrix(0.017,0,0,-0.017,0,0)" d="M125 390L69 107C68 99 56 61 56 31C56 6 67 -9 86 -9C121 -9 156 11 234 74L265 99L255 117L210 86C181 66 161 56 150 56C141 56 136 64 136 76C136 102 150 183 179 328L192 390L299 390L310 440C272 436 238 434 200 434C216 528 227 577 245 631L234 646C214 634 187 622 156 610L131 440C87 419 61 408 43 403L41 390Z" stroke="rgb(0,0,0)" stroke-opacity="1" stroke-width="8" fill="rgb(0,0,0)" fill-opacity="1"></path></g></g><g><g><g transform="matrix(1,0,0,1,522.2681274414062,31.499540328979492)"><path transform="matrix(0.017,0,0,-0.017,0,0)" d="M399 311C399 357 404 398 413 434C381 478 338 497 293 497C169 497 25 361 25 224C25 219 26 215 26 210C26 75 121 -20 255 -20C307 -20 382 -1 392 14L413 46L403 61C366 41 334 32 298 32C187 32 114 118 114 250C114 357 164 417 254 417C298 417 346 397 364 372L371 311ZM722 469C576 469 475 366 475 217C475 76 564 -20 693 -20C847 -20 957 87 957 237C957 372 859 469 722 469ZM704 436C796 436 864 336 864 200C864 85 813 13 732 13C634 13 568 109 568 251C568 371 616 436 704 436ZM1029 143C1029 74 1026 44 1018 4C1070 -13 1109 -20 1155 -20C1286 -20 1379 50 1379 148C1379 321 1095 228 1095 358C1095 408 1130 436 1191 436C1258 436 1309 401 1309 354L1309 331L1337 331C1338 389 1339 413 1342 444C1289 462 1253 469 1212 469C1096 469 1025 414 1025 324C1025 276 1047 242 1093 221C1211 169 1305 195 1305 109C1305 55 1255 17 1184 17C1111 17 1059 52 1059 102L1059 143Z" stroke="rgb(0,0,0)" stroke-opacity="1" stroke-width="8" fill="rgb(0,0,0)" fill-opacity="1"></path></g></g></g><g><g transform="matrix(1,0,0,1,546.2442626953125,32.08723545074463)"><path transform="matrix(0.017,0,0,-0.017,0,0)" d="M146 266C146 526 243 632 301 700L282 726C225 675 60 542 60 266C60 159 85 58 133 -32C168 -99 200 -138 282 -215L301 -194C255 -137 146 -15 146 266Z" stroke="rgb(0,0,0)" stroke-opacity="1" stroke-width="8" fill="rgb(0,0,0)" fill-opacity="1"></path></g></g><g><g transform="matrix(1,0,0,1,551.8916625976562,31.499540328979492)"><path transform="matrix(0.017,0,0,-0.017,0,0)" d="M125 390L69 107C68 99 56 61 56 31C56 6 67 -9 86 -9C121 -9 156 11 234 74L265 99L255 117L210 86C181 66 161 56 150 56C141 56 136 64 136 76C136 102 150 183 179 328L192 390L299 390L310 440C272 436 238 434 200 434C216 528 227 577 245 631L234 646C214 634 187 622 156 610L131 440C87 419 61 408 43 403L41 390Z" stroke="rgb(0,0,0)" stroke-opacity="1" stroke-width="8" fill="rgb(0,0,0)" fill-opacity="1"></path></g></g><g><g transform="matrix(1,0,0,1,557.5390014648438,32.08723545074463)"><path transform="matrix(0.017,0,0,-0.017,0,0)" d="M51 726L32 700C87 636 187 526 187 266C187 -10 83 -131 32 -194L51 -215C104 -165 273 -23 273 265C273 542 108 675 51 726Z" stroke="rgb(0,0,0)" stroke-opacity="1" stroke-width="8" fill="rgb(0,0,0)" fill-opacity="1"></path></g></g><g><g transform="matrix(1,0,0,1,563.1864013671875,31.499540328979492)"><path transform="matrix(0.017,0,0,-0.017,0,0)" d="M204 123C177 114 159 108 106 93C99 17 74 -48 16 -144L30 -155L71 -136C152 -31 190 32 218 109Z" stroke="rgb(0,0,0)" stroke-opacity="1" stroke-width="8" fill="rgb(0,0,0)" fill-opacity="1"></path></g></g><g><g transform="matrix(1,0,0,1,570.8172607421875,31.499540328979492)"><path transform="matrix(0.017,0,0,-0.017,0,0)" d="M125 390L69 107C68 99 56 61 56 31C56 6 67 -9 86 -9C121 -9 156 11 234 74L265 99L255 117L210 86C181 66 161 56 150 56C141 56 136 64 136 76C136 102 150 183 179 328L192 390L299 390L310 440C272 436 238 434 200 434C216 528 227 577 245 631L234 646C214 634 187 622 156 610L131 440C87 419 61 408 43 403L41 390Z" stroke="rgb(0,0,0)" stroke-opacity="1" stroke-width="8" fill="rgb(0,0,0)" fill-opacity="1"></path></g></g><g><g><g transform="matrix(1,0,0,1,580.688720703125,31.499540328979492)"><path transform="matrix(0.017,0,0,-0.017,0,0)" d="M41 143C41 74 38 44 30 4C82 -13 121 -20 167 -20C298 -20 391 50 391 148C391 321 107 228 107 358C107 408 142 436 203 436C270 436 321 401 321 354L321 331L349 331C350 389 351 413 354 444C301 462 265 469 224 469C108 469 37 414 37 324C37 276 59 242 105 221C223 169 317 195 317 109C317 55 267 17 196 17C123 17 71 52 71 102L71 143ZM611 465L602 469C551 448 499 434 446 428L446 400L483 400C523 400 527 393 527 327L527 102C527 39 524 32 490 30L444 27L444 -3C544 0 544 0 569 0C594 0 594 0 694 -3L694 27L648 30C614 32 611 39 611 102ZM565 687C535 687 509 661 509 631C509 602 535 576 564 576C593 576 620 602 620 631C620 659 593 687 565 687ZM1123 -3C1184 0 1185 0 1202 0C1216 0 1216 0 1285 -3L1285 27L1244 30C1210 32 1207 38 1207 102L1207 295C1207 412 1152 469 1040 469C1003 469 982 462 961 444L885 378L885 465L876 469C825 448 773 434 720 428L720 400L757 400C797 400 801 393 801 327L801 102C801 39 798 32 764 30L719 27L719 -3C787 -1 814 0 843 0C872 0 899 -1 967 -3L967 27L922 30C888 32 885 39 885 102L885 314C885 359 951 408 1012 408C1079 408 1123 358 1123 281Z" stroke="rgb(0,0,0)" stroke-opacity="1" stroke-width="8" fill="rgb(0,0,0)" fill-opacity="1"></path></g></g></g><g><g transform="matrix(1,0,0,1,602.6721801757812,32.08723545074463)"><path transform="matrix(0.017,0,0,-0.017,0,0)" d="M146 266C146 526 243 632 301 700L282 726C225 675 60 542 60 266C60 159 85 58 133 -32C168 -99 200 -138 282 -215L301 -194C255 -137 146 -15 146 266Z" stroke="rgb(0,0,0)" stroke-opacity="1" stroke-width="8" fill="rgb(0,0,0)" fill-opacity="1"></path></g></g><g><g transform="matrix(1,0,0,1,608.319580078125,31.499540328979492)"><path transform="matrix(0.017,0,0,-0.017,0,0)" d="M125 390L69 107C68 99 56 61 56 31C56 6 67 -9 86 -9C121 -9 156 11 234 74L265 99L255 117L210 86C181 66 161 56 150 56C141 56 136 64 136 76C136 102 150 183 179 328L192 390L299 390L310 440C272 436 238 434 200 434C216 528 227 577 245 631L234 646C214 634 187 622 156 610L131 440C87 419 61 408 43 403L41 390Z" stroke="rgb(0,0,0)" stroke-opacity="1" stroke-width="8" fill="rgb(0,0,0)" fill-opacity="1"></path></g></g><g><g transform="matrix(1,0,0,1,613.9669189453125,32.08723545074463)"><path transform="matrix(0.017,0,0,-0.017,0,0)" d="M51 726L32 700C87 636 187 526 187 266C187 -10 83 -131 32 -194L51 -215C104 -165 273 -23 273 265C273 542 108 675 51 726Z" stroke="rgb(0,0,0)" stroke-opacity="1" stroke-width="8" fill="rgb(0,0,0)" fill-opacity="1"></path></g></g><g><svg x="619.6143188476562" overflow="visible" y="8.292011260986328" height="37.3921012878418" width="7.649219512939453"><path d=" M 1.57 1.70 l 0.10 -0.10 q 1.09 0.03 2.16 0.03 q 1.02 0.00 2.14 -0.03 l 0.15 0.22 q -0.15 0.58 -0.15 3.15 v 0.85 h -1.43 v -0.85 q 0.00 -1.31 -0.07 -2.14 q -0.05 -0.60 -1.19 -0.60 h -1.65 l -0.07 -0.09 v -0.44 z  M 5.97 5.63 v 26.14 h -1.43 v -26.14 z" style="fill:rgb(0,0,0);fill-opacity:1;stroke-width:1px;stroke:none;stroke-opacity:1;"></path><path d=" M 1.57 35.69 l 0.10 0.10 q 1.09 -0.03 2.16 -0.03 q 1.02 0.00 2.14 0.03 l 0.15 -0.22 q -0.15 -0.58 -0.15 -3.15 v -0.85 h -1.43 v 0.85 q 0.00 1.31 -0.07 2.14 q -0.05 0.60 -1.19 0.60 h -1.65 l -0.07 0.09 v 0.44 z" style="fill:rgb(0,0,0);fill-opacity:1;stroke-width:1px;stroke:none;stroke-opacity:1;"></path></svg></g><g><g transform="matrix(1,0,0,1,627.796142578125,31.499540328979492)"><path transform="matrix(0.017,0,0,-0.017,0,0)" d="" stroke="rgb(0,0,0)" stroke-opacity="1" stroke-width="8" fill="rgb(0,0,0)" fill-opacity="1"></path></g></g></g></g></svg>
</svg>
