<svg xmlns="http://www.w3.org/2000/svg" xmlns:xlink="http://www.w3.org/1999/xlink" x="0" y="0" width="661.2799682617188" height="225.55999755859375" style="
        width:661.2799682617188px;
        height:225.55999755859375px;
        background: transparent;
        fill: none;
">
        
        
        <svg xmlns="http://www.w3.org/2000/svg" class="role-diagram-draw-area"><g class="shapes-region" style="stroke: black; fill: none;"><g class="arrow-line"><path class="connection real" stroke-dasharray="" d="  M246.13,29.28 C264.22,182.29 330.39,44.83 348.47,197.83" style="stroke: rgb(0, 0, 0); stroke-width: 1; fill: none; fill-opacity: 1;"/></g><g class="arrow-line"><path class="connection real" stroke-dasharray="" d="  M246.13,29.28 C259.55,170.96 357.69,44.72 336.62,202.72" style="stroke: rgb(0, 0, 0); stroke-width: 1; fill: none; fill-opacity: 1;"/></g><g class="arrow-line"><path class="connection real" stroke-dasharray="1.125 3.35" d="  M246.13,29.28 C264.04,179.1 344.97,43.91 342.6,201.09" style="stroke: rgb(74, 144, 226); stroke-opacity: 1; stroke-width: 1; fill: none; fill-opacity: 1;"/></g><g class="composite-shape"><path class="real" d=" M246.13,25.66 L248.59,27.47 L246.13,29.28 L243.67,27.47 Z" style="stroke-width: 1; stroke: rgb(0, 0, 0); fill: rgb(0, 0, 0); fill-opacity: 1;"/></g><g/></g><g/><g/><g/></svg>
        <svg xmlns="http://www.w3.org/2000/svg" xmlns:xlink="http://www.w3.org/1999/xlink" width="660" height="224.27999877929688" style="width:660px;height:224.27999877929688px;font-family:Asana-Math, Asana;background:transparent;"><g><g><g><g transform="matrix(1,0,0,1,268.34002685546875,77.92000732421874)"><path transform="matrix(0.0216,0,0,-0.0216,0,0)" d="M40 306C40 123 152 -11 282 -11C398 -11 484 78 484 168C484 201 460 201 449 201C440 201 417 201 415 172C408 74 327 50 286 50C195 50 109 156 109 306C109 455 196 561 285 561C345 561 400 515 414 434C417 417 419 401 449 401C484 401 484 422 484 442L484 581C484 597 484 622 454 622C436 622 431 612 426 605C424 601 424 599 411 574C378 602 332 622 281 622C152 622 40 488 40 306ZM580 128C580 59 643 -6 745 -6C782 -6 844 1 891 32C913 1 961 0 999 0C1027 0 1049 0 1049 31C1049 61 1024 61 1009 61C967 61 957 66 949 69L949 285C949 356 895 440 751 440C708 440 606 440 606 367C606 337 627 321 651 321C666 321 694 330 695 367C695 375 696 376 716 378C730 379 743 379 752 379C828 379 880 348 880 277C703 274 580 224 580 128ZM649 128C649 177 735 214 880 218L880 134C880 111 880 90 841 72C805 55 760 55 752 55C690 55 649 89 649 128ZM1108 30C1108 0 1134 0 1148 0L1477 0C1492 0 1517 0 1517 30C1517 61 1493 61 1477 61L1347 61L1347 570C1347 601 1341 611 1307 611L1149 611C1133 611 1108 611 1108 580C1108 550 1134 550 1148 550L1278 550L1278 61L1149 61C1133 61 1108 61 1108 30ZM1648 216C1648 96 1742 -6 1868 -6C2007 -6 2041 92 2041 109C2041 137 2012 137 2006 137C1990 137 1980 135 1973 115C1967 102 1948 55 1874 55C1789 55 1717 125 1717 216C1717 264 1745 379 1880 379C1901 379 1940 379 1940 370C1941 335 1960 321 1984 321C2008 321 2029 338 2029 367C2029 440 1925 440 1880 440C1708 440 1648 304 1648 216ZM2157 216C2157 89 2252 -6 2362 -6C2472 -6 2567 90 2567 216C2567 341 2474 440 2362 440C2250 440 2157 341 2157 216ZM2226 223C2226 314 2291 379 2362 379C2434 379 2498 314 2498 223C2498 130 2436 55 2362 55C2288 55 2226 130 2226 223ZM2683 30C2683 0 2709 0 2723 0L3052 0C3067 0 3092 0 3092 30C3092 61 3068 61 3052 61L2922 61L2922 570C2922 601 2916 611 2882 611L2724 611C2708 611 2683 611 2683 580C2683 550 2709 550 2723 550L2853 550L2853 61L2724 61C2708 61 2683 61 2683 30ZM3207 216C3207 89 3302 -6 3412 -6C3522 -6 3617 90 3617 216C3617 341 3524 440 3412 440C3300 440 3207 341 3207 216ZM3276 223C3276 314 3341 379 3412 379C3484 379 3548 314 3548 223C3548 130 3486 55 3412 55C3338 55 3276 130 3276 223Z" stroke="rgb(0,0,0)" stroke-opacity="1" stroke-width="8" fill="rgb(0,0,0)" fill-opacity="1"></path></g></g></g></g><g><g><g><g transform="matrix(1,0,0,1,328.6400146484375,104.61998901367187)"><path transform="matrix(0.0216,0,0,-0.0216,0,0)" d="M28 31C28 0 52 0 68 0L174 0C189 0 214 0 214 30C214 61 190 61 174 61L149 61L149 536L150 536L334 36C347 1 363 0 389 0C419 0 431 3 431 41L431 550L456 550C471 550 496 550 496 580C496 611 472 611 456 611L350 611C334 611 310 611 310 580C310 550 335 550 350 550L375 550L375 75L374 75L190 575C178 608 163 611 136 611L68 611C53 611 28 611 28 581C28 550 52 550 68 550L93 550L93 61L68 61C53 61 28 61 28 31ZM537 400C537 370 563 370 577 370L622 370L622 114C622 18 691 -6 764 -6C805 -6 846 4 883 32C884 0 905 0 923 0L996 0C1012 0 1037 0 1037 31C1037 61 1011 61 997 61L952 61L952 390C952 421 946 431 912 431L839 431C823 431 798 431 798 400C798 370 824 370 838 370L883 370L883 157C883 67 802 55 770 55C691 55 691 88 691 120L691 390C691 421 685 431 651 431L578 431C562 431 537 431 537 400ZM1046 30C1046 0 1073 0 1087 0L1175 0C1190 0 1216 0 1216 30C1216 61 1195 61 1159 61L1159 240C1159 329 1206 376 1247 376C1270 376 1284 359 1284 294L1284 61C1260 61 1235 61 1235 30C1235 0 1262 0 1276 0L1356 0C1371 0 1397 0 1397 30C1397 61 1376 61 1340 61L1340 240C1340 329 1387 376 1428 376C1451 376 1465 359 1465 294L1465 61C1441 61 1416 61 1416 30C1416 0 1443 0 1457 0L1537 0C1552 0 1578 0 1578 30C1578 61 1557 61 1521 61L1521 303C1521 323 1521 437 1432 437C1402 437 1355 424 1327 385C1312 419 1284 437 1251 437C1219 437 1183 423 1159 401C1157 431 1137 431 1119 431L1087 431C1072 431 1046 431 1046 401C1046 370 1067 370 1103 370L1103 61C1067 61 1046 61 1046 30ZM1630 217C1630 95 1731 -6 1860 -6C1992 -6 2039 84 2039 109C2039 137 2010 137 2004 137C1986 137 1978 134 1971 115C1949 64 1895 55 1867 55C1792 55 1717 105 1701 191L1999 191C2020 191 2039 191 2039 228C2039 342 1975 440 1845 440C1726 440 1630 340 1630 217ZM1702 251C1716 324 1775 379 1845 379C1897 379 1959 354 1968 251ZM2132 31C2132 0 2156 0 2172 0L2433 0C2448 0 2474 0 2474 30C2474 61 2448 61 2433 61L2322 61L2322 186C2322 280 2381 376 2502 376C2503 352 2520 332 2545 332C2567 332 2587 348 2587 375C2587 395 2575 437 2492 437C2441 437 2377 419 2322 356L2322 390C2322 421 2316 431 2282 431L2172 431C2157 431 2132 431 2132 401C2132 370 2156 370 2172 370L2253 370L2253 61L2172 61C2157 61 2132 61 2132 31ZM2834 562C2834 534 2856 512 2884 512C2912 512 2934 534 2934 562C2934 590 2912 612 2884 612C2856 612 2834 590 2834 562ZM2703 30C2703 0 2729 0 2744 0L3039 0C3054 0 3080 0 3080 30C3080 61 3054 61 3039 61L2934 61L2934 390C2934 421 2928 431 2894 431L2752 431C2737 431 2711 431 2711 401C2711 370 2737 370 2752 370L2865 370L2865 61L2744 61C2728 61 2703 61 2703 30ZM3223 216C3223 96 3317 -6 3443 -6C3582 -6 3616 92 3616 109C3616 137 3587 137 3581 137C3565 137 3555 135 3548 115C3542 102 3523 55 3449 55C3364 55 3292 125 3292 216C3292 264 3320 379 3455 379C3476 379 3515 379 3515 370C3516 335 3535 321 3559 321C3583 321 3604 338 3604 367C3604 440 3500 440 3455 440C3283 440 3223 304 3223 216ZM3732 216C3732 89 3827 -6 3937 -6C4047 -6 4142 90 4142 216C4142 341 4049 440 3937 440C3825 440 3732 341 3732 216ZM3801 223C3801 314 3866 379 3937 379C4009 379 4073 314 4073 223C4073 130 4011 55 3937 55C3863 55 3801 130 3801 223Z" stroke="rgb(0,0,0)" stroke-opacity="1" stroke-width="8" fill="rgb(0,0,0)" fill-opacity="1"></path></g></g></g></g></svg>
</svg>
