<svg xmlns="http://www.w3.org/2000/svg" xmlns:xlink="http://www.w3.org/1999/xlink" x="0" y="0" width="661.8285522460938" height="229.4857177734375" style="
        width:661.8285522460938px;
        height:229.4857177734375px;
        background: transparent;
        fill: none;
">
        
        
        <svg xmlns="http://www.w3.org/2000/svg" class="role-diagram-draw-area"><g class="shapes-region" style="stroke: black; fill: none;"><g class="composite-shape"><path class="real" d=" M182,111.69 L262.03,111.69 L262.03,192.26 L182,192.26 Z" style="stroke-width: 1; stroke: none; fill: none; fill-opacity: 1;"/><path class="real" d=" M182,111.69 L182,192.26 M202,111.69 L202,192.26 M222,111.69 L222,192.26 M242,111.69 L242,192.26 M262,111.69 L262,192.26" style="stroke-width: 1; stroke: rgb(0, 0, 0); fill: none; fill-opacity: 1;"/><path class="real" d=" M182,111.69 L262.03,111.69 M182,131.69 L262.03,131.69 M182,151.69 L262.03,151.69 M182,171.69 L262.03,171.69 M182,191.69 L262.03,191.69" style="stroke-width: 1; stroke: rgb(0, 0, 0); fill: none; fill-opacity: 1;"/><path class="real" d=" " style="stroke-width: 1; stroke: rgb(0, 0, 0); fill: none; fill-opacity: 1;"/></g><g class="composite-shape"><path class="real" d=" M203.03,132.88 L221,132.88 L221,150.85 L203.03,150.85 Z" style="stroke-width: 1; stroke: rgb(0, 0, 0); stroke-opacity: 0; fill: rgb(139, 87, 42); fill-opacity: 1;"/></g><g class="composite-shape"><path class="real" d=" M223.03,152.88 L241,152.88 L241,170.85 L223.03,170.85 Z" style="stroke-width: 1; stroke: rgb(0, 0, 0); stroke-opacity: 0; fill: rgb(74, 144, 226); fill-opacity: 1;"/></g><g class="composite-shape"><path class="real" d=" M243.03,172.88 L261,172.88 L261,190.85 L243.03,190.85 Z" style="stroke-width: 1; stroke: rgb(0, 0, 0); stroke-opacity: 0; fill: rgb(74, 144, 226); fill-opacity: 1;"/></g><g class="composite-shape"><path class="real" d=" M223.03,172.88 L241,172.88 L241,190.85 L223.03,190.85 Z" style="stroke-width: 1; stroke: rgb(0, 0, 0); stroke-opacity: 0; fill: rgb(74, 144, 226); fill-opacity: 1;"/></g><g class="composite-shape"><path class="real" d=" M243.03,152.88 L261,152.88 L261,170.85 L243.03,170.85 Z" style="stroke-width: 1; stroke: rgb(0, 0, 0); stroke-opacity: 0; fill: rgb(74, 144, 226); fill-opacity: 1;"/></g><g class="composite-shape"><path class="real" d=" M183.03,32.88 L201,32.88 L201,50.85 L183.03,50.85 Z" style="stroke-width: 1; stroke: rgb(0, 0, 0); stroke-opacity: 0; fill: rgb(139, 87, 42); fill-opacity: 1;"/></g><g class="arrow-line"><path class="connection real" stroke-dasharray="" d="  M242,171.69 C247.54,179.66 268.22,180.87 292.13,171.96" style="stroke: rgb(0, 0, 0); stroke-width: 1; fill: none; fill-opacity: 1;"/><g stroke="none" transform="matrix(-0.9284858268809136,0.3713678355502346,-0.3713678355502346,-0.9284858268809136,294.7428588867187,170.9499969482422)" style="stroke: none; stroke-width: 1; fill: rgb(0, 0, 0);" fill="#000"><path d=" M10.72,-5.15 L0,0 L10.72,5.15 L7.12,0 Z"/></g></g><g/></g><g/><g/><g/></svg>
        <svg xmlns="http://www.w3.org/2000/svg" xmlns:xlink="http://www.w3.org/1999/xlink" width="660" height="227.6571502685547" style="width:660px;height:227.6571502685547px;font-family:Asana-Math, Asana;background:transparent;"><g><g><g><text x="220.914306640625" y="21.74285125732422" style="white-space:pre;stroke:none;fill:rgb(0,0,0);fill-opacity:1;font-size:15px;font-family:Arial, Helvetica, sans-serif;font-weight:400;font-style:normal;dominant-baseline:text-before-edge;text-decoration:none solid rgb(0, 0, 0);">Elemento diagonale </text></g></g><g><g><text x="220.914306640625" y="42.74285125732422" style="white-space:pre;stroke:none;fill:rgb(0,0,0);fill-opacity:1;font-size:15px;font-family:Arial, Helvetica, sans-serif;font-weight:400;font-style:normal;dominant-baseline:text-before-edge;text-decoration:none solid rgb(0, 0, 0);">corrente</text></g></g></g><g><g><g><text x="298.914306640625" y="160.74285125732422" style="white-space:pre;stroke:none;fill:rgb(0,0,0);fill-opacity:1;font-size:15px;font-family:Arial, Helvetica, sans-serif;font-weight:400;font-style:normal;dominant-baseline:text-before-edge;text-decoration:none solid rgb(0, 0, 0);">Cerchiamo il massimo qui</text></g></g></g></svg>
</svg>
