<svg xmlns="http://www.w3.org/2000/svg" xmlns:xlink="http://www.w3.org/1999/xlink" x="0" y="0" width="661.8285522460938" height="195.3142852783203" style="
        width:661.8285522460938px;
        height:195.3142852783203px;
        background: transparent;
        fill: none;
">
        
        
        <svg xmlns="http://www.w3.org/2000/svg" class="role-diagram-draw-area"><g class="shapes-region" style="stroke: black; fill: none;"><g class="composite-shape"><path class="real" d=" M170,59.43 L250.03,59.43 L250.03,140 L170,140 Z" style="stroke-width: 1; stroke: none; fill: none; fill-opacity: 1;"/><path class="real" d=" M170,59.43 L170,140 M190,59.43 L190,140 M210,59.43 L210,140 M230,59.43 L230,140 M250,59.43 L250,140" style="stroke-width: 1; stroke: rgb(0, 0, 0); fill: none; fill-opacity: 1;"/><path class="real" d=" M170,59.43 L250.03,59.43 M170,79.43 L250.03,79.43 M170,99.43 L250.03,99.43 M170,119.43 L250.03,119.43 M170,139.43 L250.03,139.43" style="stroke-width: 1; stroke: rgb(0, 0, 0); fill: none; fill-opacity: 1;"/><path class="real" d=" " style="stroke-width: 1; stroke: rgb(0, 0, 0); fill: none; fill-opacity: 1;"/></g><g class="composite-shape"><path class="real" d=" M171.03,60.62 L189,60.62 L189,78.59 L171.03,78.59 Z" style="stroke-width: 1; stroke: rgb(0, 0, 0); stroke-opacity: 0; fill: rgb(74, 144, 226); fill-opacity: 1;"/></g><g class="composite-shape"><path class="real" d=" M191.03,80.62 L209,80.62 L209,98.59 L191.03,98.59 Z" style="stroke-width: 1; stroke: rgb(0, 0, 0); stroke-opacity: 0; fill: rgb(74, 144, 226); fill-opacity: 1;"/></g><g class="composite-shape"><path class="real" d=" M211.03,100.62 L229,100.62 L229,118.59 L211.03,118.59 Z" style="stroke-width: 1; stroke: rgb(0, 0, 0); stroke-opacity: 0; fill: rgb(74, 144, 226); fill-opacity: 1;"/></g><g class="composite-shape"><path class="real" d=" M231.03,120.62 L249,120.62 L249,138.59 L231.03,138.59 Z" style="stroke-width: 1; stroke: rgb(0, 0, 0); stroke-opacity: 0; fill: rgb(74, 144, 226); fill-opacity: 1;"/></g><g class="composite-shape"><path class="real" d=" M171.03,80.62 L189,80.62 L189,98.59 L171.03,98.59 Z" style="stroke-width: 1; stroke: rgb(0, 0, 0); stroke-opacity: 0; fill: rgb(74, 144, 226); fill-opacity: 1;"/></g><g class="composite-shape"><path class="real" d=" M171.03,100.62 L189,100.62 L189,118.59 L171.03,118.59 Z" style="stroke-width: 1; stroke: rgb(0, 0, 0); stroke-opacity: 0; fill: rgb(74, 144, 226); fill-opacity: 1;"/></g><g class="composite-shape"><path class="real" d=" M191.03,120.62 L209,120.62 L209,138.59 L191.03,138.59 Z" style="stroke-width: 1; stroke: rgb(0, 0, 0); stroke-opacity: 0; fill: rgb(74, 144, 226); fill-opacity: 1;"/></g><g class="composite-shape"><path class="real" d=" M191.03,100.62 L209,100.62 L209,118.59 L191.03,118.59 Z" style="stroke-width: 1; stroke: rgb(0, 0, 0); stroke-opacity: 0; fill: rgb(74, 144, 226); fill-opacity: 1;"/></g><g class="composite-shape"><path class="real" d=" M211.03,120.62 L229,120.62 L229,138.59 L211.03,138.59 Z" style="stroke-width: 1; stroke: rgb(0, 0, 0); stroke-opacity: 0; fill: rgb(74, 144, 226); fill-opacity: 1;"/></g><g class="composite-shape"><path class="real" d=" M171.03,120.62 L189,120.62 L189,138.59 L171.03,138.59 Z" style="stroke-width: 1; stroke: rgb(0, 0, 0); stroke-opacity: 0; fill: rgb(74, 144, 226); fill-opacity: 1;"/></g><g class="composite-shape"><path class="real" d=" M379.97,59.43 L460,59.43 L460,140 L379.97,140 Z" style="stroke-width: 1; stroke: none; fill: none; fill-opacity: 1;"/><path class="real" d=" M379.97,59.43 L379.97,140 M399.97,59.43 L399.97,140 M419.97,59.43 L419.97,140 M439.97,59.43 L439.97,140 M459.97,59.43 L459.97,140" style="stroke-width: 1; stroke: rgb(0, 0, 0); fill: none; fill-opacity: 1;"/><path class="real" d=" M379.97,59.43 L460,59.43 M379.97,79.43 L460,79.43 M379.97,99.43 L460,99.43 M379.97,119.43 L460,119.43 M379.97,139.43 L460,139.43" style="stroke-width: 1; stroke: rgb(0, 0, 0); fill: none; fill-opacity: 1;"/><path class="real" d=" " style="stroke-width: 1; stroke: rgb(0, 0, 0); fill: none; fill-opacity: 1;"/></g><g class="composite-shape"><path class="real" d=" M381,60.62 L398.97,60.62 L398.97,78.59 L381,78.59 Z" style="stroke-width: 1; stroke: rgb(0, 0, 0); stroke-opacity: 0; fill: rgb(74, 144, 226); fill-opacity: 1;"/></g><g class="composite-shape"><path class="real" d=" M401,80.62 L418.97,80.62 L418.97,98.59 L401,98.59 Z" style="stroke-width: 1; stroke: rgb(0, 0, 0); stroke-opacity: 0; fill: rgb(74, 144, 226); fill-opacity: 1;"/></g><g class="composite-shape"><path class="real" d=" M421,100.62 L438.97,100.62 L438.97,118.59 L421,118.59 Z" style="stroke-width: 1; stroke: rgb(0, 0, 0); stroke-opacity: 0; fill: rgb(74, 144, 226); fill-opacity: 1;"/></g><g class="composite-shape"><path class="real" d=" M441,120.62 L458.97,120.62 L458.97,138.59 L441,138.59 Z" style="stroke-width: 1; stroke: rgb(0, 0, 0); stroke-opacity: 0; fill: rgb(74, 144, 226); fill-opacity: 1;"/></g><g class="composite-shape"><path class="real" d=" M401,60.62 L418.97,60.62 L418.97,78.59 L401,78.59 Z" style="stroke-width: 1; stroke: rgb(0, 0, 0); stroke-opacity: 0; fill: rgb(74, 144, 226); fill-opacity: 1;"/></g><g class="composite-shape"><path class="real" d=" M421,60.62 L438.97,60.62 L438.97,78.59 L421,78.59 Z" style="stroke-width: 1; stroke: rgb(0, 0, 0); stroke-opacity: 0; fill: rgb(74, 144, 226); fill-opacity: 1;"/></g><g class="composite-shape"><path class="real" d=" M441,80.62 L458.97,80.62 L458.97,98.59 L441,98.59 Z" style="stroke-width: 1; stroke: rgb(0, 0, 0); stroke-opacity: 0; fill: rgb(74, 144, 226); fill-opacity: 1;"/></g><g class="composite-shape"><path class="real" d=" M421,80.62 L438.97,80.62 L438.97,98.59 L421,98.59 Z" style="stroke-width: 1; stroke: rgb(0, 0, 0); stroke-opacity: 0; fill: rgb(74, 144, 226); fill-opacity: 1;"/></g><g class="composite-shape"><path class="real" d=" M441,100.62 L458.97,100.62 L458.97,118.59 L441,118.59 Z" style="stroke-width: 1; stroke: rgb(0, 0, 0); stroke-opacity: 0; fill: rgb(74, 144, 226); fill-opacity: 1;"/></g><g class="composite-shape"><path class="real" d=" M441,60.62 L458.97,60.62 L458.97,78.59 L441,78.59 Z" style="stroke-width: 1; stroke: rgb(0, 0, 0); stroke-opacity: 0; fill: rgb(74, 144, 226); fill-opacity: 1;"/></g><g/></g><g/><g/><g/></svg>
        <svg xmlns="http://www.w3.org/2000/svg" xmlns:xlink="http://www.w3.org/1999/xlink" width="660" height="193.4857177734375" style="width:660px;height:193.4857177734375px;font-family:Asana-Math, Asana;background:transparent;"><g><g><g><g transform="matrix(1,0,0,1,122.91427612304688,106.91429138183594)"><path transform="matrix(0.017,0,0,-0.017,0,0)" d="M349 664L352 692L238 689C222 689 204 689 161 690L97 692L94 664L141 662C165 661 176 653 176 635L81 55C77 37 65 30 21 23L16 -3L57 -2C88 -1 150 0 170 0C170 0 467 -1 467 -1C467 -1 500 0 500 0C499 25 510 103 523 165L492 165L475 103C466 71 457 54 448 49C435 44 371 39 304 39C255 39 228 40 162 46C165 64 256 605 256 613C263 651 270 658 307 661Z" stroke="rgb(0,0,0)" stroke-opacity="1" stroke-width="8" fill="rgb(0,0,0)" fill-opacity="1"></path></g></g><g><g transform="matrix(1,0,0,1,141.68572998046875,106.91429138183594)"><path transform="matrix(0.017,0,0,-0.017,0,0)" d="M604 347L604 406L65 406L65 347ZM604 134L604 193L65 193L65 134Z" stroke="rgb(0,0,0)" stroke-opacity="1" stroke-width="8" fill="rgb(0,0,0)" fill-opacity="1"></path></g></g></g></g><g><g><g><g transform="matrix(1,0,0,1,331.87860107421875,106.91429138183594)"><path transform="matrix(0.017,0,0,-0.017,0,0)" d="M795 664L798 692L782 692L691 689C676 689 655 689 611 690L548 692L545 664L593 662C617 661 628 653 628 634C628 629 628 626 627 622L556 177C508 119 478 93 427 68C389 48 352 39 314 39C229 39 175 84 175 154C175 171 177 187 182 215L270 692L239 691C212 690 192 689 181 689C171 689 151 690 123 691L91 692L88 664L140 662C166 661 174 656 174 639C174 630 171 602 167 581L103 206C99 185 97 160 97 144C97 43 164 -19 276 -19C320 -19 361 -9 409 15C468 44 500 69 552 129C544 83 538 57 525 2L530 -3L552 -3L614 0C618 0 640 -1 672 -2L704 -3L709 25L649 29C626 31 617 37 617 50C617 65 618 70 623 106L708 613C714 651 721 657 759 661Z" stroke="rgb(0,0,0)" stroke-opacity="1" stroke-width="8" fill="rgb(0,0,0)" fill-opacity="1"></path></g></g><g><g transform="matrix(1,0,0,1,354.42144775390625,106.91429138183594)"><path transform="matrix(0.017,0,0,-0.017,0,0)" d="M604 347L604 406L65 406L65 347ZM604 134L604 193L65 193L65 134Z" stroke="rgb(0,0,0)" stroke-opacity="1" stroke-width="8" fill="rgb(0,0,0)" fill-opacity="1"></path></g></g></g></g></svg>
</svg>
